<?xml version="1.0" encoding="UTF-8"?>
<svg version="1.1" xmlns="http://www.w3.org/2000/svg" width="1024" height="1024">
<path d="M0 0 C17.48250233 6.77609513 33.97516665 12.70355879 52.77880859 14.26074219 C69.04994412 15.67494412 69.04994412 15.67494412 75.8125 22.4375 C76.44187706 25.51781659 76.39964599 28.35231471 75.8125 31.4375 C70.78469905 37.65609591 64.11602384 37.93301993 56.546875 38.8203125 C42.10508231 40.60125106 30.0233939 46.03789239 17.375 52.875 C2.39492749 60.95207403 -13.03242249 66.86300573 -29.125 72.3125 C-30.59843043 72.81474307 -32.07173831 73.31734581 -33.54492188 73.8203125 C-37.09105351 75.03016588 -40.63878827 76.23523228 -44.1875 77.4375 C-33.4604108 84.30053854 -22.72044148 91.13765616 -11.875 97.8125 C-3.08495006 103.2259148 5.61535334 108.771462 14.29956055 114.3527832 C21.47695965 118.95978211 28.69372082 123.49822633 35.9375 128 C43.75461557 132.86001024 51.4970312 137.81711934 59.1875 142.875 C68.52549656 149.01404731 78.00007507 154.90398852 87.53369141 160.73364258 C94.95519656 165.2770464 102.29206007 169.92709387 109.578125 174.68359375 C114.46376669 177.87134712 119.38795464 180.99780705 124.3125 184.125 C133.44254898 189.92460599 142.55855708 195.74572331 151.65893555 201.59179688 C156.57569394 204.74604558 161.50301631 207.87733092 166.4765625 210.94140625 C167.34966064 211.48200684 168.22275879 212.02260742 169.12231445 212.57958984 C170.73587155 213.57596253 172.35390392 214.56514146 173.97729492 215.54541016 C178.46558795 218.3232272 182.74649369 221.02811775 184.40722656 226.33959961 C185.22659999 230.5810911 184.93936164 235.15228042 184.80273438 239.47265625 C184.95683791 247.66024418 188.83984241 254.14683313 192.61276245 261.1762085 C194.71108545 265.13117347 196.69117729 269.14521645 198.6875 273.15234375 C199.53600922 274.84592821 200.38497178 276.53928562 201.234375 278.23242188 C201.65912109 279.0798999 202.08386719 279.92737793 202.52148438 280.80053711 C203.38144413 282.51541525 204.24212016 284.22993438 205.10351562 285.9440918 C209.89981463 295.49029162 214.6451213 305.0499542 219.12548828 314.74937439 C221.7713191 320.45435718 224.71138837 325.96997714 227.70916748 331.49671936 C229.70799328 335.21444052 231.61269378 338.97305991 233.48925781 342.75366211 C233.83099659 343.4396067 234.17273537 344.12555128 234.52482986 344.83228207 C235.25162596 346.29117693 235.97796476 347.75029969 236.70387268 349.20963669 C238.16976049 352.15543968 239.63943383 355.09934616 241.10915756 358.04323673 C242.26060786 360.34965607 243.41156521 362.65632089 244.56243896 364.96302795 C247.54594652 370.9423016 250.53146876 376.92056891 253.5172081 382.89872837 C255.77505585 387.41967348 258.03213737 391.94099803 260.28759766 396.46313477 C262.49310345 400.8850309 264.70057684 405.30593967 266.90940094 409.72617912 C267.74413322 411.39748112 268.57816525 413.06913305 269.41146088 414.74115181 C270.57419033 417.07390033 271.73944239 419.40537262 272.90527344 421.73657227 C273.41186745 422.7551532 273.41186745 422.7551532 273.92869568 423.79431152 C274.25078506 424.43711563 274.57287445 425.07991974 274.90472412 425.74220276 C275.21512634 426.36707706 275.52552856 426.99195137 275.84533691 427.63576126 C276.93285426 429.73502353 276.93285426 429.73502353 279.02435303 432.70857239 C281.74800649 437.45363719 281.37115385 442.46617649 281.33007812 447.80126953 C281.34059204 449.48787689 281.34059204 449.48787689 281.35131836 451.20855713 C281.36887562 454.91272924 281.35728439 458.61613308 281.34375 462.3203125 C281.34644516 464.89907986 281.35032779 467.47784623 281.35534668 470.05661011 C281.36123838 475.45500325 281.35307083 480.85310901 281.33398438 486.25146484 C281.31219596 492.48589852 281.31928644 498.7198093 281.34129 504.95423043 C281.36164758 510.96375048 281.35947049 516.97301533 281.34776306 522.98257065 C281.34509395 525.53507434 281.34837196 528.08759138 281.35768127 530.6400795 C281.36783071 534.20458704 281.35236744 537.76808711 281.33007812 541.33251953 C281.33817505 542.38823151 281.34627197 543.44394348 281.35461426 544.53164673 C281.27168856 551.68369164 281.27168856 551.68369164 278.93588257 555.51817322 C276.57814898 557.64933002 274.23707486 559.30176869 271.5078125 560.93359375 C270.46093262 561.56724854 269.41405273 562.20090332 268.33544922 562.85375977 C267.21412598 563.52076904 266.09280273 564.18777832 264.9375 564.875 C263.16459462 565.94453082 261.39393015 567.01770307 259.6234436 568.0912323 C258.42366258 568.81862848 257.22328047 569.54503412 256.02230835 570.27046204 C250.5232256 573.59619355 245.09739954 577.03119729 239.6875 580.5 C231.01423705 586.0482617 222.2980982 591.52416161 213.56201172 596.97290039 C207.46678666 600.77562107 201.38296193 604.59538615 195.3125 608.4375 C193.00601794 609.89504077 190.69916595 611.35199346 188.39208984 612.80859375 C186.52484857 613.9876808 184.65804198 615.16745632 182.79150391 616.34765625 C179.57176459 618.38148519 176.34869357 620.40994577 173.125 622.4375 C171.61873047 623.39076172 171.61873047 623.39076172 170.08203125 624.36328125 C155.57133365 633.4714745 155.57133365 633.4714745 151.18359375 633.38671875 C140.74540237 629.20800292 131.18736231 622.18832804 121.76513672 616.14257812 C114.39769299 611.42123202 106.96339719 606.81789861 99.5 602.25 C91.48980142 597.34324139 83.53032353 592.37846625 75.66552734 587.24194336 C71.0195921 584.20881299 66.33652215 581.24265787 61.625 578.3125 C54.30735752 573.75842575 47.03925818 569.13447118 39.8125 564.4375 C39.2335498 564.06286621 38.65459961 563.68823242 38.05810547 563.30224609 C36.3685809 562.20686078 34.68418901 561.10357131 33 560 C31.53626953 559.04287109 31.53626953 559.04287109 30.04296875 558.06640625 C27.8125 556.4375 27.8125 556.4375 26.8125 554.4375 C26.65317589 552.16850488 26.56098201 549.89474995 26.49609375 547.62109375 C26.4751767 546.88974716 26.45425964 546.15840057 26.43270874 545.40489197 C26.3647327 542.8950533 26.30633692 540.38512604 26.25 537.875 C26.22948578 537.00055237 26.20897156 536.12610474 26.18783569 535.22515869 C25.74401102 515.58564432 25.67063593 495.94187188 25.63127518 476.29814529 C25.62500741 473.81543436 25.61509609 471.33276182 25.60421753 468.85006714 C25.58749688 464.88458639 25.58141447 460.91922102 25.58324051 456.95370674 C25.58244427 455.47694901 25.57832652 454.00018874 25.57062912 452.52345085 C25.52164503 442.36354229 26.03535406 434.28087558 30.8671875 425.12109375 C31.47618896 423.95602295 32.08519043 422.79095215 32.71264648 421.59057617 C33.37081301 420.35198808 34.02910022 419.11346412 34.6875 417.875 C35.36549769 416.58417741 36.04265215 415.29291159 36.71899414 414.0012207 C38.08798032 411.38970921 39.46146247 408.78065105 40.83935547 406.17382812 C43.16146604 401.78009006 45.46477418 397.37661648 47.76416016 392.97094727 C48.70811179 391.16292161 49.65415988 389.35598774 50.60302734 387.55053711 C54.7859357 379.56924097 58.79885438 371.5047581 62.8125 363.4375 C63.47157655 362.1133518 64.13067451 360.78921426 64.78979492 359.46508789 C65.11203537 358.81766129 65.43427582 358.17023468 65.76628113 357.50318909 C67.07763793 354.86917794 68.39000424 352.23567055 69.70263672 349.60229492 C70.35635709 348.28983055 71.00935845 346.97700779 71.66162109 345.66381836 C75.53393192 337.86975057 79.48571778 330.12675474 83.5625 322.4375 C89.54664834 311.13805744 95.23859669 299.69519317 100.9375 288.25 C102.49516442 285.12714738 104.0533986 282.00457961 105.61174011 278.88206482 C106.61567821 276.86898186 107.61855895 274.8553712 108.62031555 272.84120178 C110.82670091 268.40603015 113.04141196 263.97623448 115.29760742 259.56616211 C115.67138519 258.83181442 116.04516296 258.09746674 116.43026733 257.34086609 C117.10830908 256.0109213 117.79094478 254.68330269 118.47940063 253.35871887 C120.47703988 249.42948001 122.13670506 245.79003263 121.65234375 241.3203125 C119.73636976 237.02496616 115.68751412 234.81853277 111.8125 232.4375 C111.1009375 231.9940625 110.389375 231.550625 109.65625 231.09375 C108.07469984 230.13590976 106.48374737 229.19352259 104.88671875 228.26171875 C100.96197523 225.93280487 97.10623265 223.50275347 93.25 221.0625 C92.44771973 220.55501221 91.64543945 220.04752441 90.81884766 219.5246582 C82.89086366 214.50055538 74.98960951 209.43473027 67.0871582 204.37060547 C57.68874967 198.35061574 48.25721861 192.38447806 38.8125 186.4375 C35.77018018 184.52186757 32.72841384 182.60536362 29.6875 180.6875 C28.91728516 180.20176514 28.14707031 179.71603027 27.35351562 179.21557617 C21.76755255 175.68685194 16.20256127 172.12624315 10.64233398 168.55712891 C1.0099293 162.37425073 -8.65441361 156.25502592 -18.40307617 150.25708008 C-26.07235522 145.53110204 -33.67191358 140.69865397 -41.25854492 135.84130859 C-42.57495972 134.99947021 -42.57495972 134.99947021 -43.91796875 134.140625 C-44.69551514 133.64208008 -45.47306152 133.14353516 -46.27416992 132.62988281 C-48.16771057 131.40842899 -48.16771057 131.40842899 -50.1875 130.4375 C-50.42106191 153.93309415 -50.5974238 177.42851444 -50.70562172 200.92503548 C-50.75719468 211.8348584 -50.82750948 222.74396023 -50.94189453 233.65332031 C-51.04154122 243.1615531 -51.10607568 252.66926373 -51.12838495 262.17800415 C-51.14142731 267.21354614 -51.17209025 272.24759432 -51.24480057 277.28265762 C-51.31269144 282.02239205 -51.3336153 286.76001817 -51.31857681 291.50019264 C-51.32132761 293.23935089 -51.34121859 294.97857973 -51.37955475 296.71731758 C-51.91757613 305.92555648 -51.91757613 305.92555648 -47.99918747 313.75133896 C-45.43903139 315.30171136 -42.98093382 316.38328786 -40.1875 317.4375 C-31.41336727 323.68063291 -25.48887522 333.94664379 -23.1875 344.4375 C-21.86250765 359.46748224 -23.59106459 371.83982355 -33.04296875 384.02734375 C-37.94950011 389.54160577 -43.85110711 392.82688222 -50.1875 396.4375 C-50.56840529 412.69763836 -50.84676221 428.95624313 -51.01649475 445.21981907 C-51.09754942 452.7787217 -51.20752725 460.33476252 -51.39453125 467.8918457 C-52.34419837 507.09813664 -49.27569359 540.1102589 -36.19195557 577.56692505 C-33.52193129 585.26532307 -31.33128412 593.08164688 -29.18832016 600.93990898 C-28.20520537 604.53182334 -27.18741316 608.11385718 -26.17382812 611.69726562 C-25.79144909 613.05566132 -25.40936743 614.41414077 -25.02758789 615.77270508 C-24.83898193 616.44382324 -24.65037598 617.11494141 -24.45605469 617.80639648 C-23.85465204 619.94744046 -23.25362411 622.08858946 -22.65258789 624.22973633 C-21.65146478 627.7952757 -20.64700486 631.35986189 -19.6405735 634.92390633 C-19.09568607 636.85741782 -18.55468282 638.79202264 -18.01383972 640.72666931 C-17.37408113 642.99197151 -16.72095845 645.25356518 -16.05119324 647.51017761 C-15.51933428 649.31281144 -15.01835466 651.12531205 -14.5695343 652.95039368 C-13.79122286 655.69886612 -13.05941695 657.89565803 -10.55610657 659.4513092 C-8.37025671 660.25411444 -6.23736843 660.76649831 -3.95703125 661.23828125 C-3.11412537 661.44135895 -2.27121948 661.64443665 -1.402771 661.85366821 C1.39161932 662.51834898 4.19458966 663.1336529 7 663.75 C8.95329306 664.20657212 10.90584079 664.66634356 12.85766602 665.12915039 C19.16553869 666.6125621 25.48770079 668.0283052 31.8125 669.4375 C34.0462963 669.93750245 36.28001976 670.4378304 38.51367188 670.93847656 C40.18051277 671.31184898 40.18051277 671.31184898 41.88102722 671.69276428 C45.19578256 672.4366517 48.50966085 673.18435574 51.82348633 673.93237305 C56.05595233 674.8873822 60.2926883 675.81848289 64.53393555 676.73364258 C66.47974112 677.16448732 68.42546482 677.59570201 70.37109375 678.02734375 C71.25565247 678.21237457 72.14021118 678.3974054 73.05157471 678.58804321 C77.77506333 679.65265229 81.64357904 680.53426357 84.8125 684.4375 C85.50225777 687.37589305 85.46637232 690.21219064 85.40625 693.21875 C85.40629028 694.06924927 85.40633057 694.91974854 85.40637207 695.79602051 C85.40101843 697.59146528 85.38344215 699.38690957 85.35449219 701.18212891 C85.31264267 703.92813839 85.31342344 706.67169419 85.3203125 709.41796875 C85.30981933 711.16407952 85.29688054 712.91017766 85.28125 714.65625 C85.28104858 715.47613403 85.28084717 716.29601807 85.28063965 717.14074707 C85.18883345 721.56952456 84.99479283 724.27249614 81.8125 727.4375 C79.49409962 727.93889666 79.49409962 727.93889666 76.70405579 727.94086456 C75.64098048 727.95129555 74.57790518 727.96172654 73.48261547 727.97247362 C72.31055207 727.96355073 71.13848867 727.95462785 69.9309082 727.94543457 C68.68906171 727.95167453 67.44721521 727.9579145 66.16773701 727.96434355 C62.71392256 727.97757073 59.26097387 727.97276671 55.8072114 727.96039867 C52.08525975 727.95137249 48.36338541 727.96530576 44.64144897 727.97631836 C37.34756478 727.99413431 30.05384493 727.99024998 22.75995421 727.9786678 C16.83374031 727.9696458 10.90757256 727.96840411 4.98135376 727.97276306 C4.13891658 727.97337599 3.2964794 727.97398893 2.42851382 727.97462043 C0.71728761 727.97589929 -0.9939386 727.97719614 -2.70516479 727.9785108 C-18.76324558 727.9899256 -34.82123513 727.9767888 -50.87930095 727.95530933 C-64.66730103 727.93743752 -78.45516642 727.94054138 -92.24316406 727.95898438 C-108.242541 727.98037522 -124.24183791 727.98882688 -140.24122715 727.97653532 C-141.94626934 727.97526108 -143.65131154 727.9740036 -145.35635376 727.97276306 C-146.19533618 727.97214596 -147.0343186 727.97152886 -147.89872473 727.97089306 C-153.81998434 727.96743479 -159.74119331 727.97327874 -165.66244507 727.98268127 C-172.87541212 727.99388284 -180.08820498 727.99090022 -187.30115199 727.9695583 C-190.98357658 727.95902285 -194.66571044 727.95496804 -198.34813309 727.96815491 C-202.33422368 727.98221367 -206.31983489 727.96546357 -210.3059082 727.94543457 C-211.4779716 727.95435746 -212.650035 727.96328034 -213.85761547 727.97247362 C-214.92069077 727.96204263 -215.98376608 727.95161164 -217.07905579 727.94086456 C-217.99977025 727.94021515 -218.92048471 727.93956574 -219.86909962 727.93889666 C-222.1875 727.4375 -222.1875 727.4375 -223.98251629 725.64847136 C-225.85742935 722.20827624 -225.61500922 718.69530391 -225.5859375 714.875 C-225.59024277 713.63254517 -225.59024277 713.63254517 -225.59463501 712.36499023 C-225.59667318 710.61669225 -225.59116056 708.86837133 -225.57861328 707.12011719 C-225.56255554 704.44674607 -225.57846971 701.7748867 -225.59765625 699.1015625 C-225.59567377 697.40103834 -225.59183001 695.70051511 -225.5859375 694 C-225.59201019 693.20198975 -225.59808289 692.40397949 -225.6043396 691.58178711 C-225.54834119 687.15487153 -225.30277111 684.62776412 -222.1875 681.4375 C-219.71841431 680.46578979 -219.71841431 680.46578979 -216.73291016 679.79248047 C-215.60766937 679.53016632 -214.48242859 679.26785217 -213.3230896 678.99758911 C-212.09498566 678.72768158 -210.86688171 678.45777405 -209.6015625 678.1796875 C-207.63497047 677.72690749 -205.66838217 677.27411087 -203.70196724 676.82056236 C-201.61729656 676.34232179 -199.53110186 675.87128434 -197.44445801 675.4017334 C-193.24203316 674.45376756 -189.04747751 673.47413645 -184.85449219 672.48535156 C-184.16381779 672.32257595 -183.47314339 672.15980034 -182.76153946 671.99209213 C-181.36211278 671.6622688 -179.96269491 671.33240807 -178.56328583 671.00251007 C-175.05493439 670.17696993 -171.54507543 669.35790717 -168.03515625 668.5390625 C-167.34062222 668.37698429 -166.64608818 668.21490608 -165.93050766 668.04791641 C-163.07742892 667.38221506 -160.22428474 666.71679479 -157.37109375 666.05157471 C-153.07461922 665.04983251 -148.77840226 664.04700088 -144.48256302 663.04253769 C-142.50241427 662.58000093 -140.52189122 662.11909213 -138.54135132 661.65823364 C-136.76010361 661.24177078 -136.76010361 661.24177078 -134.94287109 660.81689453 C-133.90004974 660.57375519 -132.85722839 660.33061584 -131.7828064 660.08010864 C-129.09864873 659.45174171 -129.09864873 659.45174171 -126.1875 658.4375 C-125.22532761 656.02541717 -124.48073437 653.73871345 -123.7890625 651.24609375 C-123.56176956 650.46638718 -123.33447662 649.6866806 -123.10029602 648.88334656 C-122.32605884 646.21711669 -121.56960087 643.54614223 -120.8125 640.875 C-120.26239391 638.96887858 -119.71100222 637.06312781 -119.15844727 635.15771484 C-117.89722909 630.80290931 -116.64298508 626.44616037 -115.39208984 622.08837891 C-112.88749439 613.37818747 -110.34459902 604.6792716 -107.80078125 595.98046875 C-107.32910467 594.36704504 -106.85744536 592.75361627 -106.38580322 591.1401825 C-106.03425549 589.93758207 -106.03425549 589.93758207 -105.67560577 588.71068668 C-105.44089317 587.90776408 -105.20618057 587.10484148 -104.96435547 586.27758789 C-104.61189381 585.07196906 -104.61189381 585.07196906 -104.25231171 583.84199429 C-101.94819389 575.95972446 -99.64821055 568.07625292 -97.35121727 560.19190407 C-96.93550858 558.7651542 -96.51966298 557.33844422 -96.10366249 555.9117794 C-95.52308557 553.92062286 -94.94300066 551.92932356 -94.36303711 549.93798828 C-93.87558266 548.26508224 -93.87558266 548.26508224 -93.37828064 546.55838013 C-93.20496027 545.9451055 -93.0316399 545.33183086 -92.8530674 544.69997215 C-92.32438476 542.9028142 -91.7575229 541.11689625 -91.17755699 539.3356266 C-88.55318103 530.94293445 -87.62691952 523.49712486 -87.73339844 514.73095703 C-87.73281433 513.44144135 -87.73223022 512.15192566 -87.73162842 510.82333374 C-87.73049542 507.33643841 -87.75377059 503.85010992 -87.78192425 500.36334467 C-87.80717816 496.70123436 -87.80929857 493.03910656 -87.81402588 489.37692261 C-87.82638602 482.46406867 -87.85911166 475.55147219 -87.89942384 468.63873088 C-87.94436035 460.75951167 -87.9661832 452.88027921 -87.98620558 445.00096345 C-88.02785186 428.81299236 -88.09806602 412.62527919 -88.1875 396.4375 C-88.93660645 396.04353027 -89.68571289 395.64956055 -90.45751953 395.24365234 C-91.44349121 394.71723145 -92.42946289 394.19081055 -93.4453125 393.6484375 C-94.42129395 393.13071777 -95.39727539 392.61299805 -96.40283203 392.07958984 C-106.20435694 386.29973218 -111.42825206 376.74358254 -114.45703125 366.0625 C-117.19418047 352.47921405 -115.03771764 339.62962989 -108.0625 327.625 C-102.54510885 319.52651171 -96.58244472 315.12176992 -87.1875 312.4375 C-87.1875 253.0375 -87.1875 193.6375 -87.1875 132.4375 C-96.01047604 137.73128563 -104.78446705 143.01077532 -113.4375 148.5625 C-115.234375 149.7109375 -117.03125 150.859375 -118.828125 152.0078125 C-119.70750732 152.57081055 -120.58688965 153.13380859 -121.49291992 153.71386719 C-141.7353528 166.66227492 -162.09818401 179.41940277 -182.49609375 192.12109375 C-190.97759855 197.40577288 -199.41709541 202.75429686 -207.84423828 208.12524414 C-213.78325409 211.90997132 -219.7308413 215.68061108 -225.6875 219.4375 C-227.21879954 220.40486951 -228.75004884 221.37231854 -230.28125 222.33984375 C-232.886418 223.98580695 -235.49292081 225.62956507 -238.1015625 227.27001953 C-241.13247076 229.1764492 -244.16016847 231.08789707 -247.1875 233 C-248.61352539 233.89428711 -248.61352539 233.89428711 -250.06835938 234.80664062 C-250.95330078 235.36673828 -251.83824219 235.92683594 -252.75 236.50390625 C-253.53503906 236.99834229 -254.32007813 237.49277832 -255.12890625 238.00219727 C-258.09005349 240.06678273 -259.83094965 241.34273037 -260.97070312 244.84228516 C-261.67200293 253.23734927 -254.4672946 262.90614265 -250.6875 270.0625 C-249.34586899 272.62271973 -248.00977809 275.18579509 -246.67578125 277.75 C-246.32159622 278.43067535 -245.96741119 279.11135071 -245.60249329 279.81265259 C-240.07183014 290.47738625 -234.75748741 301.2528651 -229.41796875 312.01416016 C-224.92630279 321.05163588 -220.3342531 330.02528884 -215.61271667 338.94497681 C-212.35033766 345.11003923 -209.20647018 351.32478296 -206.1328125 357.5859375 C-203.39433488 363.1195509 -200.53779687 368.58511443 -197.65234375 374.04296875 C-191.5705985 385.55365063 -185.66052624 397.15073936 -179.75 408.75 C-178.66481891 410.87700689 -177.57953295 413.00396027 -176.49414062 415.13085938 C-174.51966283 419.00140281 -172.54520833 422.87195761 -170.57250977 426.7434082 C-170.18297623 427.50772659 -169.79344269 428.27204498 -169.3921051 429.05952454 C-168.99458542 429.84425644 -168.59706573 430.62898834 -168.1875 431.4375 C-167.38670517 432.88163773 -167.38670517 432.88163773 -166.56973267 434.35494995 C-165.09509893 437.64356583 -164.77134271 439.87022631 -164.68676758 443.45239258 C-164.65282394 444.64563644 -164.61888031 445.83888031 -164.58390808 447.06828308 C-164.56266373 448.37219498 -164.54141937 449.67610687 -164.51953125 451.01953125 C-164.48755872 452.42431859 -164.45480505 453.82908834 -164.42134094 455.23384094 C-164.31652298 459.96807696 -164.24912984 464.70252981 -164.1875 469.4375 C-164.17595634 470.28858086 -164.16441269 471.13966171 -164.15251923 472.0165329 C-163.99194043 484.11764552 -163.91735229 496.21796956 -163.89233398 508.32006836 C-163.88331237 512.23851293 -163.86200961 516.15662126 -163.83081055 520.07495117 C-163.79247827 524.89051735 -163.77358793 529.70578076 -163.76905251 534.52149391 C-163.76420059 536.33438998 -163.75262665 538.14728171 -163.73401451 539.96008873 C-163.70974399 542.46814762 -163.71055864 544.97501475 -163.7175293 547.4831543 C-163.70471924 548.21906799 -163.69190918 548.95498169 -163.67871094 549.7131958 C-163.72811403 554.58138822 -164.74668525 557.01305562 -168.1875 560.4375 C-170.67919922 562.25170898 -170.67919922 562.25170898 -173.4921875 563.93359375 C-174.53906738 564.56724854 -175.58594727 565.20090332 -176.66455078 565.85375977 C-177.78587402 566.52076904 -178.90719727 567.18777832 -180.0625 567.875 C-181.83540538 568.94453082 -183.60606985 570.01770307 -185.3765564 571.0912323 C-186.57633742 571.81862848 -187.77671953 572.54503412 -188.97769165 573.27046204 C-194.4767744 576.59619355 -199.90260046 580.03119729 -205.3125 583.5 C-213.98576295 589.0482617 -222.7019018 594.52416161 -231.43798828 599.97290039 C-237.53321118 603.77561972 -243.61722481 607.59509312 -249.6875 611.4375 C-257.09307834 616.12189163 -264.5109845 620.78636915 -271.9375 625.4375 C-272.95005859 626.07300781 -273.96261719 626.70851563 -275.00585938 627.36328125 C-276.89675361 628.54619834 -278.79109425 629.723631 -280.68945312 630.89453125 C-282.21295803 631.83555461 -283.7293537 632.7883852 -285.23242188 633.76171875 C-289.05686256 636.14937613 -291.69817571 637.20610027 -296.1875 636.4375 C-298.74987025 635.11385274 -300.99967865 633.78690099 -303.375 632.1875 C-304.80196926 631.26154293 -306.22905756 630.33576929 -307.65625 629.41015625 C-308.39875 628.9217627 -309.14125 628.43336914 -309.90625 627.93017578 C-313.69947628 625.44817819 -317.53918902 623.04043579 -321.375 620.625 C-322.56198486 619.87404053 -322.56198486 619.87404053 -323.77294922 619.10791016 C-329.65801431 615.3868706 -335.57363513 611.71731264 -341.5 608.0625 C-348.66439021 603.64349145 -355.78422613 599.16112277 -362.875 594.625 C-371.02897716 589.40941278 -379.24660621 584.30666097 -387.5 579.25 C-403.14926533 569.63864019 -403.14926533 569.63864019 -410.0625 565.25 C-410.73966064 564.82887939 -411.41682129 564.40775879 -412.11450195 563.97387695 C-415.94857761 561.51470452 -418.76638629 559.30509926 -421.1875 555.4375 C-421.77269632 552.36417044 -421.75157431 549.34098374 -421.73339844 546.21948242 C-421.74373611 545.29835663 -421.75407379 544.37723083 -421.76472473 543.42819214 C-421.79421008 540.38294004 -421.79565444 537.33835267 -421.796875 534.29296875 C-421.81187185 532.16366833 -421.82860214 530.03437947 -421.84698486 527.90510559 C-421.89072646 522.29049169 -421.91065575 516.67603356 -421.92572021 511.0612793 C-421.94512476 505.40078146 -421.98726977 499.74046051 -422.02734375 494.08007812 C-422.10133906 483.04243258 -422.15394683 472.00488127 -422.17994118 460.96701813 C-422.18725325 458.5200719 -422.19969057 456.0732 -422.21330261 453.62628174 C-422.21904218 452.180461 -422.22468919 450.73463989 -422.23022461 449.28881836 C-422.23654404 448.05683212 -422.24286346 446.82484589 -422.24937439 445.55552673 C-422.07140082 436.5869315 -418.05478644 429.85669113 -413.875 422.0625 C-412.59879479 419.65057702 -411.32887403 417.23535998 -410.05859375 414.8203125 C-409.73525055 414.20750427 -409.41190735 413.59469604 -409.07876587 412.96331787 C-405.76560028 406.67081628 -402.595937 400.30887066 -399.4375 393.9375 C-394.17478565 383.35277978 -388.7502952 372.86715717 -383.1875 362.4375 C-382.01884041 360.24541041 -380.8506961 358.05305783 -379.68457031 355.85961914 C-378.98545756 354.54520806 -378.28459349 353.2317251 -377.58105469 351.91967773 C-373.63211464 344.5033048 -369.93011328 336.95931665 -366.1875 329.4375 C-365.52687034 328.11026278 -364.86622614 326.7830328 -364.20556641 325.45581055 C-363.88360794 324.80898819 -363.56164948 324.16216583 -363.22993469 323.4957428 C-350.40972928 297.74284402 -350.40972928 297.74284402 -345 287.5625 C-344.62512451 286.84513672 -344.25024902 286.12777344 -343.86401367 285.38867188 C-341.55716103 280.97717642 -339.16749759 276.62408079 -336.7265625 272.28515625 C-329.7535528 259.55842493 -325.71873432 249.6374333 -326.33984375 235.01953125 C-326.41601703 229.97344041 -325.27310478 227.45376299 -322.1875 223.4375 C-319.93015823 221.77389361 -317.94045981 220.48714372 -315.5 219.1875 C-314.14544442 218.42094922 -312.7926431 217.65129211 -311.44140625 216.87890625 C-310.74031738 216.48203613 -310.03922852 216.08516602 -309.31689453 215.67626953 C-305.77645401 213.6166278 -302.36163754 211.37096548 -298.9375 209.125 C-285.85866378 200.59830141 -272.62025027 192.32751069 -259.375 184.0625 C-249.6923442 178.02049189 -240.052367 171.91430105 -230.4296875 165.77734375 C-225.46136888 162.60928633 -220.48307113 159.45729148 -215.5 156.3125 C-214.72527344 155.82354248 -213.95054687 155.33458496 -213.15234375 154.83081055 C-210.05987436 152.87956337 -206.96694148 150.92905153 -203.87402344 148.97851562 C-201.54079374 147.50686169 -199.20780448 146.03482789 -196.875 144.5625 C-195.71387695 143.82966797 -195.71387695 143.82966797 -194.52929688 143.08203125 C-187.4026664 138.58038608 -180.29472413 134.04957147 -173.1862793 129.51928711 C-167.70290305 126.02810239 -162.20552963 122.56112572 -156.6875 119.125 C-151.39105555 115.8263546 -146.12519209 112.4848596 -140.88110352 109.10327148 C-126.88030332 100.07820303 -112.82070873 91.15194377 -98.62475586 82.43652344 C-97.79339111 81.92508789 -96.96202637 81.41365234 -96.10546875 80.88671875 C-95.37094482 80.43643311 -94.6364209 79.98614746 -93.87963867 79.5222168 C-92.22594404 78.54717463 -92.22594404 78.54717463 -91.1875 77.4375 C-95.73545482 75.85520347 -100.28861523 74.28929366 -104.84716797 72.73779297 C-106.39457212 72.20864726 -107.94050842 71.67518739 -109.48486328 71.13720703 C-111.7152763 70.36109818 -113.95064811 69.60107093 -116.1875 68.84375 C-116.86804443 68.60313843 -117.54858887 68.36252686 -118.24975586 68.11462402 C-123.86758151 66.24030126 -129.15010608 65.2738303 -134.86523438 67.46337891 C-143.57082333 73.14101342 -150.50649316 80.37655718 -157.6875 87.8125 C-165.83830535 96.20620315 -173.87179771 104.31746314 -183.1875 111.4375 C-183.82703613 111.93056641 -184.46657227 112.42363281 -185.12548828 112.93164062 C-203.37646734 126.738676 -224.470763 138.63836064 -248.1875 136.4375 C-251.0123164 136.04259494 -253.81833241 135.56981214 -256.625 135.0625 C-257.32407471 134.93657471 -258.02314941 134.81064941 -258.7434082 134.6809082 C-262.12519551 134.01922728 -264.28124331 133.37500446 -267.1875 131.4375 C-266.96875 129.56640625 -266.96875 129.56640625 -266.1875 127.4375 C-264.21875 126.27734375 -264.21875 126.27734375 -261.6875 125.375 C-260.78773438 125.04757812 -259.88796875 124.72015625 -258.9609375 124.3828125 C-258.04570312 124.07085937 -257.13046875 123.75890625 -256.1875 123.4375 C-255.35476563 123.14617187 -254.52203125 122.85484375 -253.6640625 122.5546875 C-248.02572582 120.6252899 -248.02572582 120.6252899 -245.26953125 120.0078125 C-231.6119682 116.26671643 -220.14392524 105.54357822 -210.11328125 96.0546875 C-208.1875 94.4375 -208.1875 94.4375 -206.1875 94.4375 C-205.98511719 93.90640625 -205.78273438 93.3753125 -205.57421875 92.828125 C-203.58296793 89.39532076 -200.84282476 86.92853971 -198 84.1875 C-192.61361836 78.90909544 -192.61361836 78.90909544 -187.5625 73.3125 C-180.38950112 64.94106397 -172.77445821 57.79172456 -163.81640625 51.41015625 C-161.37159401 49.57563889 -159.28504442 47.65405403 -157.1875 45.4375 C-157.73535156 45.32792969 -158.28320312 45.21835938 -158.84765625 45.10546875 C-160.03681641 44.86763672 -160.03681641 44.86763672 -161.25 44.625 C-162.17554688 44.44324219 -163.10109375 44.26148438 -164.0546875 44.07421875 C-166.16949458 43.64440135 -168.27904135 43.18796671 -170.3828125 42.70703125 C-179.32572821 40.73638875 -188.10633807 39.80234101 -197.24291992 39.25976562 C-203.74422845 38.81051759 -208.31705603 37.76488701 -213.5 33.5625 C-215.48678862 31.06061803 -216.03215249 29.62212393 -216.1875 26.4375 C-215.09249156 21.94796539 -212.96535202 19.98535369 -209.1875 17.4375 C-204.26774809 14.83405152 -199.06337472 14.95941438 -193.625 14.625 C-171.8251666 12.90369169 -152.65738736 5.4424533 -132.38195801 -2.23666382 C-84.55392932 -20.30282458 -47.36601536 -18.37258251 0 0 Z M-135.8125 20.125 C-136.4503241 20.36465485 -137.08814819 20.60430969 -137.74530029 20.85122681 C-145.92976363 23.78895504 -145.92976363 23.78895504 -153.1875 28.4375 C-109.51338736 48.16765293 -69.09731117 62.15750004 -22.17431641 44.68798828 C-9.86835052 39.97223085 1.97111719 34.20038767 13.8125 28.4375 C8.73175255 24.24012884 2.53501171 22.41704489 -3.5625 20.125 C-4.20367767 19.88171967 -4.84485535 19.63843933 -5.50546265 19.38778687 C-17.20736062 14.96216607 -29.02914482 11.4050903 -41.1875 8.4375 C-44.04799049 11.29799049 -43.45782811 13.44386499 -43.5625 17.4375 C-43.85071117 24.10308194 -45.18316512 29.48551581 -48.1875 35.4375 C-48.69603516 36.52804688 -48.69603516 36.52804688 -49.21484375 37.640625 C-50.53332485 40.07637321 -51.60928781 40.41978466 -54.1875 41.4375 C-55.280625 41.97375 -56.37375 42.51 -57.5 43.0625 C-64.30314025 45.55145375 -72.89765621 45.80742013 -79.79296875 43.60546875 C-81.875 42.5625 -81.875 42.5625 -85.1875 40.4375 C-85.89390625 40.10492188 -86.6003125 39.77234375 -87.328125 39.4296875 C-90.09445499 37.95353662 -90.25446948 36.42319767 -91.1875 33.4375 C-91.435 32.76976562 -91.6825 32.10203125 -91.9375 31.4140625 C-94.55788456 23.83006488 -94.87963857 16.39943346 -95.1875 8.4375 C-108.69694773 8.4375 -123.28251298 15.37816162 -135.8125 20.125 Z M-308.1328125 274.42578125 C-310.96813505 278.58173882 -313.21667699 282.95964563 -315.5 287.4375 C-316.27126221 288.93265137 -316.27126221 288.93265137 -317.05810547 290.45800781 C-318.17692164 292.62773224 -319.2933606 294.79868372 -320.40771484 296.97070312 C-323.2083168 302.4259223 -326.02751826 307.87150145 -328.84539795 313.31781006 C-329.81494631 315.19222942 -330.7837639 317.06702499 -331.75244141 318.94189453 C-335.65536298 326.49357832 -339.5838719 334.03094226 -343.55566406 341.54663086 C-345.73299844 345.66801378 -347.89648507 349.79604412 -350.04296875 353.93359375 C-355.44867918 364.35007687 -360.9421346 374.70577646 -366.59692383 384.98925781 C-371.16851408 393.3334032 -375.55699335 401.76907098 -379.91186523 410.22802734 C-380.42692627 411.22656738 -380.9419873 412.22510742 -381.47265625 413.25390625 C-381.92519775 414.13506104 -382.37773926 415.01621582 -382.84399414 415.92407227 C-384.1875 418.4375 -384.1875 418.4375 -385.91967773 421.13647461 C-386.33805908 421.89581299 -386.75644043 422.65515137 -387.1875 423.4375 C-386.8575 424.0975 -386.5275 424.7575 -386.1875 425.4375 C-385.68637695 425.11177002 -385.18525391 424.78604004 -384.66894531 424.45043945 C-383.95834961 423.98855225 -383.24775391 423.52666504 -382.515625 423.05078125 C-381.71672852 422.5314502 -380.91783203 422.01211914 -380.09472656 421.47705078 C-378.2947741 420.30718091 -376.49463832 419.13759304 -374.69433594 417.96826172 C-370.20869035 415.05422352 -365.72519912 412.13709184 -361.25 409.20703125 C-349.32611384 401.40919977 -337.28404803 393.8134569 -325.18017578 386.29833984 C-322.20889194 384.45080146 -319.24266281 382.59537472 -316.27734375 380.73828125 C-314.41417752 379.57533653 -312.55090122 378.41256815 -310.6875 377.25 C-309.42498413 376.45722656 -309.42498413 376.45722656 -308.13696289 375.6484375 C-304.44296142 373.35110797 -300.7240079 371.0981056 -296.90625 369.01171875 C-296.30748047 368.68131592 -295.70871094 368.35091309 -295.09179688 368.01049805 C-291.70525228 366.99149546 -289.06299129 367.99196009 -285.99365234 369.55395508 C-285.26098145 370.01697021 -284.52831055 370.47998535 -283.7734375 370.95703125 C-282.94038086 371.47821533 -282.10732422 371.99939941 -281.24902344 372.53637695 C-280.3624707 373.10187256 -279.47591797 373.66736816 -278.5625 374.25 C-277.16306152 375.13014771 -277.16306152 375.13014771 -275.73535156 376.02807617 C-273.80744597 377.24191243 -271.88167071 378.45913865 -269.95800781 379.6796875 C-267.46342598 381.26243241 -264.96373233 382.83653803 -262.4609375 384.40625 C-253.43998562 390.07192487 -244.46872271 395.81462638 -235.5 401.5625 C-224.67433368 408.49718891 -224.67433368 408.49718891 -213.8125 415.375 C-213.17094971 415.78186035 -212.52939941 416.1887207 -211.8684082 416.60791016 C-209.31762364 418.20598356 -207.05700325 419.48099892 -204.1875 420.4375 C-204.92240645 416.4984014 -206.70439508 413.10377054 -208.5 409.5625 C-209.02678345 408.51582153 -209.02678345 408.51582153 -209.56420898 407.44799805 C-212.98672942 400.71373972 -216.62909928 394.10398542 -220.27075195 387.48657227 C-224.52842164 379.7180884 -228.63064517 371.87444139 -232.6875 364 C-233.00473022 363.38430145 -233.32196045 362.76860291 -233.64880371 362.13424683 C-234.91782705 359.67049959 -236.18641359 357.20652835 -237.45425415 354.74217224 C-247.27004459 335.66926202 -257.13641432 316.60069588 -267.41015625 297.76953125 C-268.77057801 295.2191142 -270.0826079 292.66069339 -271.37109375 290.07421875 C-271.94718384 288.93750732 -271.94718384 288.93750732 -272.53491211 287.77783203 C-273.2789818 286.3073448 -274.0111882 284.83076611 -274.72875977 283.34716797 C-277.96628744 277.00428726 -282.08377339 272.61477561 -288.8125 270.0625 C-295.60974888 268.80375021 -303.02695413 269.20714287 -308.1328125 274.42578125 Z M138.41894531 273.67163086 C134.93226332 277.5043316 132.89935821 282.32676789 130.625 286.9375 C129.71848831 288.72968403 128.81194143 290.52185054 127.90432739 292.31347656 C126.91385737 294.2732593 125.92950047 296.23602994 124.94580078 298.19921875 C121.44958008 305.1626662 117.87274406 312.08509462 114.30856323 319.01391602 C113.06112123 321.4401817 111.81556685 323.86740756 110.57055664 326.29492188 C106.24373782 334.72905377 101.89475674 343.14944625 97.45605469 351.52539062 C94.02855567 358.00054461 90.66471148 364.50818715 87.3036499 371.01797485 C78.38121715 388.29773647 69.45768114 405.54678424 59.8125 422.4375 C63.88770817 422.4375 66.3120245 420.45796823 69.625 418.3125 C70.32222168 417.86874023 71.01944336 417.42498047 71.73779297 416.96777344 C73.27542732 415.98821365 74.81114119 415.00563461 76.34521484 414.02050781 C78.8881768 412.38894584 81.43734143 410.76749467 83.98828125 409.1484375 C88.64636466 406.1910314 93.30016222 403.22696249 97.95263672 400.26074219 C109.68593637 392.78043812 121.4228449 385.30592015 133.1875 377.875 C133.94184326 377.39853027 134.69618652 376.92206055 135.47338867 376.43115234 C136.89799159 375.53216058 138.32570996 374.63808253 139.75683594 373.74951172 C141.14286067 372.86489214 142.50584028 371.94323267 143.84472656 370.98876953 C147.82187448 368.23186091 150.91918897 366.62432553 155.83837891 366.97509766 C159.58028069 367.85157082 162.41137546 369.91385122 165.5 372.125 C166.99445398 373.14303632 168.49062807 374.15855097 169.98828125 375.171875 C170.77154785 375.70748047 171.55481445 376.24308594 172.36181641 376.79492188 C176.56156007 379.60981283 180.87668735 382.23470661 185.1875 384.875 C191.81880791 388.95829993 198.42538789 393.07605852 205 397.25 C212.29744446 401.87593907 219.63180841 406.44094479 226.98648071 410.97518921 C228.15347028 411.69470521 229.32012203 412.41476946 230.48641968 413.13540649 C232.12394176 414.14677299 233.76311306 415.15546768 235.40234375 416.1640625 C236.82341431 417.03925537 236.82341431 417.03925537 238.27319336 417.93212891 C240.41880588 419.20410725 242.56401515 420.36131906 244.8125 421.4375 C240.48490985 410.20637317 234.35313825 399.6940972 228.56884766 389.16821289 C224.89590292 382.46852114 221.3264261 375.72180137 217.8125 368.9375 C213.98617706 361.55192216 210.07704957 354.22238936 206.0625 346.9375 C201.11830889 337.95173352 196.3774334 328.87004542 191.6875 319.75 C191.3444281 319.08304108 191.0013562 318.41608215 190.64788818 317.72891235 C189.29913977 315.10641695 187.95074907 312.48373799 186.60281372 309.86082458 C177.12321429 287.6949763 177.12321429 287.6949763 161.8125 270.4375 C153.08647286 267.91827041 145.65461286 267.44909052 138.41894531 273.67163086 Z M-81.5625 343.75 C-84.9089417 349.28449973 -85.61650461 353.68059692 -84.78515625 360.03515625 C-83.49666029 365.21440471 -80.52968032 367.6216649 -76 370.375 C-69.79992879 372.1028887 -64.64454678 371.57502166 -58.8125 368.875 C-54.48450207 364.85614478 -52.52036274 360.76753917 -51.6875 354.9375 C-52.52388601 349.08279792 -54.47870233 344.98733975 -58.875 341 C-66.85797502 337.23444575 -75.03206346 337.39141705 -81.5625 343.75 Z " fill="#00CEDE" transform="translate(592.1875,136.5625)"/>
<path d="M0 0 C9.37176998 7.43414665 15.68414999 20.39739746 21.71484375 30.55078125 C22.15199707 31.2770874 22.58915039 32.00339355 23.03955078 32.75170898 C23.86566611 34.12967696 24.67870993 35.51559844 25.47607422 36.91040039 C30.25063303 44.86355664 37.65081244 45.85589672 46.0625 48.0625 C65.15259449 53.23928278 83.803959 59.89059827 102.28076172 66.93164062 C111.29887537 70.33787614 121.73996736 72.11562263 131.09765625 68.953125 C134.59347867 67.20263955 137.74966201 65.16689199 141 63 C143.77097485 62.983827 146.25150873 63.51236445 149 64 C150 65 150 65 150.375 68.5625 C150.25178658 75.4624514 146.16125064 80.13116965 141.375 84.75 C129.46402054 94.64944782 112.69489637 93.98605428 98.14453125 92.64453125 C79.876608 89.72714586 62.27380967 82.27027113 45.0625 75.75 C4.31068174 60.35976377 -26.15140557 65.31155053 -66.1875 80.625 C-88.2976848 89.06500615 -117.65678568 99.95574892 -141 90 C-148.37127273 86.59283394 -154.0176717 82.18761693 -158 75 C-158.93695716 72.06691671 -159.05426648 70.14745587 -159 67 C-157 64 -157 64 -154.3046875 63.09765625 C-150.15184347 62.97493627 -147.62447245 64.46160739 -144.125 66.4375 C-132.72040699 72.15174511 -123.14387121 71.22916251 -111.29003906 67.47875977 C-104.54972497 65.21660682 -97.89745795 62.7314335 -91.2578125 60.19140625 C-89.77639665 59.62667208 -88.2946294 59.06285882 -86.8125 58.5 C-86.07990967 58.22043457 -85.34731934 57.94086914 -84.5925293 57.65283203 C-76.0063854 54.47465034 -67.15659615 52.17239138 -58.31176758 49.83984375 C-55.96638895 49.2173675 -53.62532741 48.57835345 -51.28930664 47.92163086 C-49.1904403 47.33354948 -47.0803451 46.78331965 -44.95874023 46.28344727 C-36.37399043 43.88964411 -33.34878716 38.81350252 -29.0625 31.3125 C-27.69701718 29.05546987 -26.32850694 26.80026862 -24.95703125 24.546875 C-24.29268066 23.43763672 -23.62833008 22.32839844 -22.94384766 21.18554688 C-20.20436792 16.69613069 -17.27622671 12.36222611 -14.25 8.0625 C-13.53469116 7.01799683 -13.53469116 7.01799683 -12.80493164 5.95239258 C-9.0713037 0.65707378 -6.54799701 -2.23086333 0 0 Z " fill="#00CFDE" transform="translate(527,43)"/>
<path d="M0 0 C-2.95183101 2.95183101 -5.95511947 3.08663988 -10 4 C-9 1 -9 1 -7.25 -0.25 C-4.47275102 -1.17574966 -2.78428335 -0.77341204 0 0 Z " fill="#00C4D2" transform="translate(527,43)"/>
<path d="M0 0 C4.10958767 1.45044271 7.43258745 3.51110752 11 6 C10.01 6.495 10.01 6.495 9 7 C7.08984375 6.328125 7.08984375 6.328125 4.9375 5.25 C4.22464844 4.90453125 3.51179687 4.5590625 2.77734375 4.203125 C1 3 1 3 0 0 Z " fill="#00C5D4" transform="translate(641,274)"/>
<path d="M0 0 C2.25 0.25 2.25 0.25 4 1 C2.02 2.32 0.04 3.64 -2 5 C-2.66 4.67 -3.32 4.34 -4 4 C-2.25 1.9375 -2.25 1.9375 0 0 Z " fill="#00C6D4" transform="translate(866,692)"/>
<path d="M0 0 C0.66 0.99 1.32 1.98 2 3 C1.34 4.32 0.68 5.64 0 7 C-0.66 6.67 -1.32 6.34 -2 6 C-2 4.35 -2 2.7 -2 1 C-1.34 0.67 -0.68 0.34 0 0 Z " fill="#01C7D7" transform="translate(370,109)"/>
<path d="M0 0 C2 1 2 1 2 1 Z " fill="#00D2E0" transform="translate(384,553)"/>
<path d="" fill="#00D1DF" transform="translate(0,0)"/>
<path d="M0 0 C2 1 2 1 2 1 Z " fill="#00CDDB" transform="translate(457,240)"/>
<path d="M0 0 C2 1 2 1 2 1 Z " fill="#00D3E0" transform="translate(553,184)"/>
<path d="M0 0 C2 1 2 1 2 1 Z " fill="#01D2DF" transform="translate(593,168)"/>
<path d="" fill="#00A6B2" transform="translate(0,0)"/>
<path d="" fill="#00C5CF" transform="translate(0,0)"/>
<path d="" fill="#00C6D3" transform="translate(0,0)"/>
<path d="" fill="#01CDDB" transform="translate(0,0)"/>
<path d="" fill="#00C5D2" transform="translate(0,0)"/>
<path d="" fill="#00CEDB" transform="translate(0,0)"/>
<path d="" fill="#00CCDA" transform="translate(0,0)"/>
<path d="" fill="#00CEDC" transform="translate(0,0)"/>
<path d="" fill="#00C1CF" transform="translate(0,0)"/>
<path d="" fill="#00D0DE" transform="translate(0,0)"/>
<path d="" fill="#00D3E1" transform="translate(0,0)"/>
<path d="" fill="#00D0DF" transform="translate(0,0)"/>
<path d="" fill="#00D4E4" transform="translate(0,0)"/>
<path d="" fill="#00D1E1" transform="translate(0,0)"/>
<path d="" fill="#00CFDD" transform="translate(0,0)"/>
<path d="" fill="#00D2E1" transform="translate(0,0)"/>
<path d="" fill="#00D0E0" transform="translate(0,0)"/>
<path d="" fill="#00D2DE" transform="translate(0,0)"/>
<path d="" fill="#00CEDD" transform="translate(0,0)"/>
<path d="" fill="#00D1E0" transform="translate(0,0)"/>
<path d="" fill="#00D2E0" transform="translate(0,0)"/>
<path d="" fill="#00C4D3" transform="translate(0,0)"/>
<path d="" fill="#00CADC" transform="translate(0,0)"/>
<path d="" fill="#00CFDE" transform="translate(0,0)"/>
<path d="" fill="#00C6D2" transform="translate(0,0)"/>
<path d="" fill="#00C5D4" transform="translate(0,0)"/>
<path d="" fill="#00D2DF" transform="translate(0,0)"/>
<path d="" fill="#00CFDE" transform="translate(0,0)"/>
<path d="" fill="#00D1E1" transform="translate(0,0)"/>
<path d="" fill="#00C7D4" transform="translate(0,0)"/>
<path d="" fill="#01C8D6" transform="translate(0,0)"/>
<path d="" fill="#00C4D2" transform="translate(0,0)"/>
<path d="" fill="#00C5D3" transform="translate(0,0)"/>
<path d="" fill="#00CFDC" transform="translate(0,0)"/>
<path d="" fill="#00D0DE" transform="translate(0,0)"/>
<path d="" fill="#00C4D5" transform="translate(0,0)"/>
<path d="" fill="#00C4D4" transform="translate(0,0)"/>
<path d="" fill="#00BECD" transform="translate(0,0)"/>
<path d="" fill="#00CFDD" transform="translate(0,0)"/>
<path d="" fill="#00D1DB" transform="translate(0,0)"/>
<path d="" fill="#00D2DE" transform="translate(0,0)"/>
<path d="" fill="#00C2D2" transform="translate(0,0)"/>
<path d="" fill="#00C6D5" transform="translate(0,0)"/>
<path d="" fill="#01C8D7" transform="translate(0,0)"/>
<path d="" fill="#00D1DF" transform="translate(0,0)"/>
<path d="" fill="#00CCDC" transform="translate(0,0)"/>
<path d="" fill="#00C6D4" transform="translate(0,0)"/>
<path d="" fill="#00CEE1" transform="translate(0,0)"/>
<path d="" fill="#01CFDD" transform="translate(0,0)"/>
<path d="" fill="#00D2E1" transform="translate(0,0)"/>
<path d="" fill="#01D1DE" transform="translate(0,0)"/>
<path d="" fill="#00D4E1" transform="translate(0,0)"/>
<path d="" fill="#00D5E3" transform="translate(0,0)"/>
<path d="" fill="#00D1E0" transform="translate(0,0)"/>
</svg>
