<?xml version="1.0" encoding="UTF-8"?>
<svg version="1.1" xmlns="http://www.w3.org/2000/svg" width="1024" height="1024">
<path d="M0 0 C1.66095703 0.02900391 1.66095703 0.02900391 3.35546875 0.05859375 C22.7264187 0.82232296 41.57398547 7.17005751 59.88916016 13.015625 C64.70304977 14.53890258 69.53737385 15.99171607 74.375 17.4375 C75.19508545 17.6842749 76.0151709 17.9310498 76.86010742 18.18530273 C87.93280753 21.50368688 99.19542238 23.53936582 110.69140625 24.72265625 C111.84688965 24.8427002 113.00237305 24.96274414 114.19287109 25.08642578 C116.48992149 25.31718996 118.78848368 25.53345077 121.08837891 25.73388672 C127.16450676 26.34360832 131.36736658 26.88978627 136 31 C138.70268792 35.05403188 138.6363834 38.24387141 138 43 C136.52644966 46.08105981 135.27382436 47.43534256 132.140625 48.82421875 C128.09476548 50.1426109 123.95932116 51.0148937 119.80078125 51.89453125 C119.0423291 52.05687256 118.28387695 52.21921387 117.50244141 52.38647461 C116.01632116 52.70009269 114.52780393 53.00267103 113.03662109 53.29125977 C101.222247 55.73374342 90.76208467 61.01243435 80.25 66.75 C61.08313317 76.92832228 40.91232578 83.39259403 20 89 C22.50610312 91.77368872 25.31053929 93.56304697 28.48828125 95.51171875 C29.58084229 96.18348145 30.67340332 96.85524414 31.79907227 97.54736328 C32.97009215 98.26094358 34.14123698 98.97431886 35.3125 99.6875 C36.50260925 100.41636275 37.69263188 101.14536694 38.88256836 101.87451172 C45.83797074 106.12647867 52.829887 110.29564251 59.97265625 114.2265625 C62.45366703 115.67995462 64.81705132 117.1955677 67.19921875 118.80078125 C72.28326665 122.22374661 77.50270434 125.39748593 82.75 128.5625 C90.39611766 133.19559673 98.0270263 137.85082316 105.625 142.5625 C106.48617432 143.09649414 107.34734863 143.63048828 108.23461914 144.18066406 C109.9663035 145.25495423 111.69783116 146.32949702 113.42919922 147.40429688 C120.30425782 151.67166468 127.18505093 155.92973603 134.06787109 160.18457031 C136.7598191 161.85129182 139.44928149 163.52196347 142.13801575 165.19386292 C144.50843279 166.66671689 146.88093161 168.1361951 149.2538147 169.60507202 C150.96540555 170.66605554 152.67450265 171.73105865 154.38354492 172.79614258 C155.4326001 173.44478271 156.48165527 174.09342285 157.5625 174.76171875 C158.49191406 175.33881592 159.42132812 175.91591309 160.37890625 176.51049805 C162.95681293 178.05478749 162.95681293 178.05478749 165.71582031 179.08178711 C168.52022929 180.20912595 169.90318777 181.84629751 172 184 C173.71523554 185.09796925 175.46996239 186.13553775 177.25 187.125 C182.08863021 189.8807374 186.84673595 192.72649319 191.5625 195.6875 C192.23289307 196.10813721 192.90328613 196.52877441 193.59399414 196.9621582 C197.23613807 199.25198087 200.87235939 201.55113636 204.5078125 203.8515625 C205.27399902 204.33633057 206.04018555 204.82109863 206.82958984 205.32055664 C208.40823825 206.31943016 209.98668716 207.31861904 211.56494141 208.31811523 C216.75831547 211.60131287 221.97460456 214.84503896 227.20654297 218.06640625 C230.70874801 220.22546274 234.20185112 222.39899602 237.69433594 224.57373047 C239.73747521 225.83760379 241.79196049 227.07965432 243.8515625 228.31640625 C253.59313867 234.37230092 253.59313867 234.37230092 255.46748352 239.33853149 C256.03959947 242.1979145 255.93854196 244.78997344 255.77190876 247.68984413 C255.26681562 257.90871069 257.81551265 264.92111831 262.61328125 273.8515625 C263.30746578 275.20548265 263.99848871 276.56102782 264.68656921 277.9180603 C266.49224016 281.45960901 268.33726678 284.97901103 270.19281006 288.49462891 C272.03739669 292.00422017 273.84712242 295.53162842 275.65820312 299.05859375 C277.77982658 303.18633451 279.90363557 307.3127972 282.04402161 311.43084717 C287.58356082 322.09819627 292.82601547 332.88931326 297.94326782 343.76580811 C300.12432881 348.37710782 302.39602726 352.94281691 304.6875 357.5 C305.13971924 358.40250488 305.59193848 359.30500977 306.05786133 360.23486328 C309.27413483 366.6264314 312.60751545 372.94583902 316.00415039 379.24291992 C317.87687432 382.74480755 319.66528052 386.2838821 321.43359375 389.83984375 C322.13726501 391.2523714 322.84113699 392.66479907 323.54516602 394.07714844 C323.93278107 394.85513794 324.32039612 395.63312744 324.71975708 396.43469238 C326.65627734 400.31502642 328.60141618 404.19102654 330.54600525 408.06732178 C332.7572394 412.47562199 334.96603175 416.88514394 337.17480469 421.29467773 C338.31831252 423.57660312 339.46253051 425.85817275 340.60742188 428.1394043 C342.27922106 431.47090537 343.94845414 434.80368119 345.6171875 438.13671875 C346.12861298 439.15440842 346.64003845 440.17209808 347.16696167 441.22062683 C347.87878098 442.64415215 347.87878098 442.64415215 348.60498047 444.09643555 C349.22830765 445.33975899 349.22830765 445.33975899 349.86422729 446.60820007 C352.23516312 451.60110412 353.26841931 455.31721362 353.40527344 460.90649414 C353.4333823 461.92441323 353.4333823 461.92441323 353.46205902 462.96289635 C353.52106848 465.21602931 353.56571342 467.46917713 353.609375 469.72265625 C353.64654578 471.32748661 353.68404884 472.9323093 353.72186279 474.53712463 C354.10596601 491.75364934 354.22157987 508.97325383 354.24023438 526.19360352 C354.24586191 530.64706716 354.27029772 535.10024652 354.29820633 539.55361843 C354.31676832 543.03742871 354.32203341 546.52116649 354.32357025 550.00502205 C354.32657878 551.65043878 354.33454579 553.29585478 354.34775543 554.94122124 C354.36478574 557.21162329 354.36295133 559.48126928 354.35644531 561.75170898 C354.36009094 563.03544907 354.36373657 564.31918915 354.36749268 565.64183044 C353.96895417 569.2836986 353.20726876 571.10882363 351 574 C348.62853407 575.77202016 346.3256335 577.33447574 343.8125 578.875 C343.07201416 579.34131836 342.33152832 579.80763672 341.56860352 580.28808594 C339.05214132 581.86920086 336.5259929 583.43416352 334 585 C332.12692916 586.17340236 330.25455581 587.34791871 328.3828125 588.5234375 C323.3035557 591.70979308 318.21580309 594.88232109 313.12597656 598.05175781 C309.02473073 600.60782949 304.9284102 603.17173433 300.83203125 605.7355957 C283.97589025 616.28294978 267.08851049 626.77498933 250.07592773 637.06860352 C244.40735774 640.50550936 238.79560756 644.01926643 233.21923828 647.60400391 C229.12642534 650.17855885 225.78466904 650.79351654 221 650 C217.09237618 648.39768423 213.58537115 646.2197273 210 644 C209.14970215 643.47720459 209.14970215 643.47720459 208.28222656 642.94384766 C205.00857537 640.92813544 201.75034058 638.88900264 198.5 636.8359375 C193.55937284 633.7161208 188.59392508 630.63699125 183.625 627.5625 C182.28296509 626.73165894 182.28296509 626.73165894 180.91381836 625.8840332 C175.35088007 622.44361628 169.77411872 619.02679064 164.1875 615.625 C156.05223327 610.67034949 147.97711945 605.62160405 139.90771484 600.56054688 C134.48542136 597.16369817 129.04630959 593.80002858 123.5703125 590.49047852 C117.46725955 586.79947774 111.40915955 583.05847873 105.5 579.0625 C104.4790625 578.37285156 103.458125 577.68320312 102.40625 576.97265625 C99.4408538 574.54160904 98.29050012 572.568497 97.59271812 568.8009634 C97.05607978 562.59858182 96.83512083 556.44167137 96.80712891 550.21704102 C96.79895142 549.18961792 96.79077393 548.16219482 96.78234863 547.1036377 C96.75773485 543.73706618 96.74104605 540.37053593 96.7265625 537.00390625 C96.72123882 535.84632246 96.71591515 534.68873867 96.71043015 533.49607658 C96.6838105 527.37556499 96.66439517 521.25507305 96.64990234 515.13452148 C96.63654301 510.08811401 96.60863643 505.04210892 96.56787109 499.99584961 C96.51845702 493.8764212 96.49377208 487.75735855 96.48667526 481.63773918 C96.47998448 479.31623262 96.46481956 476.99473354 96.44078445 474.67334175 C96.4089971 471.41924954 96.40911623 468.16656162 96.41650391 464.91235352 C96.40009857 463.96708298 96.38369324 463.02181244 96.36679077 462.04789734 C96.43465709 454.69721883 98.64314989 449.46257653 102 443 C103.06932221 440.82605217 104.13756475 438.65157306 105.20491028 436.47665405 C106.42338066 434.0398603 107.64393472 431.60419023 108.86645508 429.16943359 C109.54403841 427.81619097 110.22143678 426.46285572 110.89866638 425.10943604 C112.34723968 422.21542839 113.79704912 419.3220448 115.24784279 416.42914963 C117.5504191 411.83764581 119.84985304 407.24457272 122.14884949 402.65127563 C127.4477273 392.06551144 132.75060828 381.48175391 138.05358124 370.89804077 C142.91017994 361.20511594 147.76589094 351.51174905 152.61833686 341.81674445 C154.52540092 338.00674381 156.43330692 334.19716994 158.34327126 330.38862228 C168.6092499 309.98685554 168.6092499 309.98685554 178.4250946 289.36636353 C180.72859182 284.44263348 183.18563192 279.60133322 185.65234375 274.7578125 C188.10289856 269.74305396 188.56357312 265.5042308 188 260 C186.61785878 256.64838754 186.61785878 256.64838754 185 254 C185 253.34 185 252.68 185 252 C184.34 252 183.68 252 183 252 C183 251.34 183 250.68 183 250 C182.34644531 249.77699219 181.69289063 249.55398438 181.01953125 249.32421875 C176.96867507 247.54771132 173.39899354 245.20601248 169.6875 242.8125 C167.9743328 241.71946494 166.26077271 240.6270455 164.546875 239.53515625 C163.19045898 238.66914795 163.19045898 238.66914795 161.80664062 237.78564453 C157.03278942 234.74841874 152.23593568 231.7481852 147.4375 228.75 C146.43485107 228.12327393 145.43220215 227.49654785 144.39916992 226.85083008 C135.8646374 221.52407904 127.29663296 216.25257468 118.72363281 210.98803711 C110.35729074 205.84630087 102.02381624 200.65369523 93.70068359 195.44238281 C87.18468379 191.36326976 80.66088954 187.29717522 74.125 183.25 C73.26511475 182.71753662 72.40522949 182.18507324 71.51928711 181.63647461 C66.69158908 178.65158526 61.85091745 175.68916124 57 172.7421875 C49.5867933 168.23763482 42.27078306 163.61224408 35.0090332 158.86743164 C29.12058949 155.03648847 23.11849499 151.45417925 17 148 C15.28205099 149.71794901 15.83077871 151.99938413 15.79467773 154.34594727 C15.77473251 155.4870546 15.75478729 156.62816193 15.73423767 157.80384827 C15.71752518 159.0454924 15.70081268 160.28713654 15.68359375 161.56640625 C15.6524221 163.46204567 15.6524221 163.46204567 15.62062073 165.39598083 C15.56616286 168.76118633 15.5159572 172.12640173 15.46777344 175.49169922 C15.41760241 178.92355901 15.36189345 182.35532831 15.30664062 185.78710938 C15.19929809 192.52466761 15.09755675 199.26229336 15 206 C16.24168945 206.15073975 17.48337891 206.30147949 18.76269531 206.45678711 C43.91177233 209.50985765 68.02894164 220.08825207 86 238 C86.8353125 238.81339844 87.670625 239.62679687 88.53125 240.46484375 C97.28160336 249.45057054 102.83227228 259.29252453 107 271 C107.2259082 271.6290625 107.45181641 272.258125 107.68457031 272.90625 C115.363282 295.5531416 113.0552082 324.47924271 103 346 C95.2329302 361.36418183 84.80032923 374.23246984 70.6875 384.1875 C69.52541016 385.01942871 69.52541016 385.01942871 68.33984375 385.86816406 C62.81253374 389.79745743 57.17452383 393.53814739 51.5 397.25 C37.11469244 406.71049683 25.0709171 417.54201434 21.0234375 434.921875 C19.02759123 444.71284013 18.86986098 454.05539995 19 464 C11.39371676 464.02319967 3.78743719 464.04095394 -3.81887341 464.05181217 C-7.35102274 464.05702433 -10.88314782 464.06409164 -14.4152832 464.07543945 C-18.47868072 464.08841195 -22.54205286 464.093242 -26.60546875 464.09765625 C-27.8702153 464.10281754 -29.13496185 464.10797882 -30.43803406 464.11329651 C-31.61888077 464.11337204 -32.79972748 464.11344757 -34.01635742 464.11352539 C-35.05338303 464.115746 -36.09040863 464.11796661 -37.15885925 464.12025452 C-39.87950872 464.00509993 -42.35156042 463.61402376 -45 463 C-48.41359131 435.69126953 -45.07205439 408.55950045 -28 386 C-27.34 386 -26.68 386 -26 386 C-25.74605469 385.42378906 -25.49210937 384.84757812 -25.23046875 384.25390625 C-18.5114482 371.94636702 -2.51253178 363.40778146 9.1875 356.5 C22.71659401 348.43990065 33.898331 338.77170937 38.46875 323.12890625 C41.74720184 309.99099261 38.58759394 298.56409154 32 287 C31.5359375 285.90558594 31.5359375 285.90558594 31.0625 284.7890625 C29.69640729 282.48880345 28.43248463 282.05069209 26 281 C24.51859293 280.04513357 23.03961403 279.08649412 21.5625 278.125 C7.00809114 269.37095114 -8.76671936 268.90315237 -25 272 C-36.73162006 275.0084768 -47.96769542 281.2497762 -54.65625 291.55078125 C-58.28916258 298.1309832 -59.98694584 304.46794804 -61.06347656 311.83178711 C-61.32066824 313.56358684 -61.65379992 315.28377643 -62 317 C-64.6609638 318.3304819 -66.69161407 318.13443994 -69.67138672 318.14526367 C-70.85957001 318.15164352 -72.0477533 318.15802338 -73.27194214 318.16459656 C-75.20627609 318.16626579 -75.20627609 318.16626579 -77.1796875 318.16796875 C-79.15885666 318.17296135 -79.15885666 318.17296135 -81.17800903 318.17805481 C-83.97398699 318.18404719 -86.76993404 318.18589464 -89.56591797 318.18530273 C-93.1460316 318.18520119 -96.72594654 318.19884435 -100.30601311 318.21607494 C-103.05983386 318.22720316 -105.81360673 318.22922168 -108.56744766 318.22869301 C-110.5283683 318.23044523 -112.489274 318.24128238 -114.45016479 318.25224304 C-115.6446524 318.24916641 -116.83914001 318.24608978 -118.06982422 318.24291992 C-119.12080292 318.24434494 -120.17178162 318.24576996 -121.25460815 318.24723816 C-124.00925416 317.99916661 -125.65349596 317.41827009 -128 316 C-126.85830738 286.40612555 -122.80532052 259.42717607 -100.078125 238.16796875 C-80.69150168 221.473932 -50.26981393 206 -24 206 C-24 187.19 -24 168.38 -24 149 C-30.30294189 152.101065 -30.30294189 152.101065 -36.26953125 155.59375 C-37.00260498 156.06014893 -37.73567871 156.52654785 -38.4909668 157.00708008 C-39.25707275 157.49974365 -40.02317871 157.99240723 -40.8125 158.5 C-42.50255488 159.57690026 -44.19266043 160.65372103 -45.8828125 161.73046875 C-46.73649414 162.27622559 -47.59017578 162.82198242 -48.46972656 163.38427734 C-52.36751907 165.87323825 -56.27701145 168.34355102 -60.1875 170.8125 C-60.95529785 171.2976709 -61.7230957 171.7828418 -62.51416016 172.28271484 C-74.45165957 179.81949494 -86.4364366 187.28113965 -98.4140625 194.75390625 C-109.40539692 201.6137079 -120.35965191 208.53167983 -131.30761719 215.46044922 C-139.83030829 220.85425694 -148.36202986 226.23282009 -156.91723633 231.57495117 C-158.96579751 232.85418653 -161.01381575 234.13429177 -163.0612793 235.4152832 C-167.85584325 238.41492546 -172.65476613 241.40661053 -177.46875 244.375 C-179.14590043 245.41655863 -180.82298741 246.45821945 -182.5 247.5 C-183.61955078 248.18352539 -183.61955078 248.18352539 -184.76171875 248.88085938 C-190.68766294 252.5778282 -197.22315528 256.65953192 -200.5625 262.9375 C-201.53313001 269.73191005 -199.88749117 275.09080683 -196.6796875 281.01171875 C-195.94799365 282.41798934 -195.21726034 283.82475997 -194.48730469 285.23193359 C-194.08829956 285.99262146 -193.68929443 286.75330933 -193.27819824 287.53704834 C-190.89712956 292.12511369 -188.61799824 296.76432063 -186.3203125 301.39453125 C-185.29867474 303.44360757 -184.27653191 305.49243215 -183.25390625 307.54101562 C-181.69111266 310.67270938 -180.12889352 313.80468059 -178.56884766 316.93774414 C-172.9703458 328.17974054 -167.32003306 339.38393804 -161.43728638 350.48017883 C-157.84366535 357.26508711 -154.40311751 364.11732432 -151 371 C-146.6938625 379.67231342 -142.30973016 388.2936937 -137.7578125 396.83984375 C-133.6410386 404.60405251 -129.74555611 412.47655862 -125.83813477 420.34765625 C-122.06886695 427.92092136 -118.19868707 435.43086616 -114.15820312 442.86328125 C-113.78373047 443.56066406 -113.40925781 444.25804687 -113.0234375 444.9765625 C-112.70294434 445.56518066 -112.38245117 446.15379883 -112.05224609 446.76025391 C-108.54182319 454.23232346 -107.56282917 459.97043723 -107.61181641 468.18603516 C-107.60393097 469.82656105 -107.60393097 469.82656105 -107.59588623 471.50022888 C-107.58273798 475.09665423 -107.59140507 478.69263306 -107.6015625 482.2890625 C-107.59954058 484.79674362 -107.59662816 487.30442416 -107.59286499 489.81210327 C-107.58844889 495.05902628 -107.59456274 500.30583411 -107.60888672 505.55273438 C-107.62522764 511.60816218 -107.6199087 517.66328714 -107.6034075 523.71870768 C-107.58812793 529.56106617 -107.58977654 535.40331004 -107.5985527 541.24567795 C-107.60055266 543.72478656 -107.59810263 546.20390291 -107.59111404 548.68300247 C-107.58349125 552.14646113 -107.59511546 555.60933852 -107.61181641 559.07275391 C-107.60574371 560.09524734 -107.59967102 561.11774078 -107.59341431 562.17121887 C-107.64109196 567.51125832 -107.90393029 571.43474324 -111 576 C-113.33110618 577.7541574 -115.49020438 579.18870233 -118 580.625 C-119.45502912 581.49508777 -120.90943067 582.36622566 -122.36328125 583.23828125 C-123.12463379 583.68896973 -123.88598633 584.1396582 -124.67041016 584.60400391 C-128.55637149 586.93264852 -132.36703011 589.37846524 -136.1875 591.8125 C-143.8135047 596.6426145 -151.48163169 601.40211114 -159.1628418 606.14379883 C-164.96370598 609.72865058 -170.74006562 613.34979503 -176.5 617 C-184.79792859 622.25489397 -193.12630788 627.45790696 -201.49609375 632.59765625 C-205.40999768 635.0038668 -209.29010752 637.45751344 -213.16015625 639.93359375 C-215.21081162 641.22676214 -217.26159005 642.51973541 -219.3125 643.8125 C-220.7351416 644.73844971 -220.7351416 644.73844971 -222.18652344 645.68310547 C-230.7381853 651.02598868 -230.7381853 651.02598868 -235.99584961 650.55297852 C-240.30177206 649.3649027 -243.9024929 646.96544152 -247.625 644.5625 C-248.50889404 644.01190918 -249.39278809 643.46131836 -250.3034668 642.89404297 C-252.88158002 641.28157932 -255.44320219 639.64600046 -258 638 C-258.63212402 637.59539551 -259.26424805 637.19079102 -259.91552734 636.77392578 C-262.67043539 635.0092245 -265.41698897 633.23211743 -268.16015625 631.44921875 C-272.96825073 628.35561851 -277.86203138 625.40259628 -282.75 622.4375 C-300.39999503 611.73025544 -318.02720976 600.98308619 -335.43359375 589.8828125 C-338.69100368 587.81088618 -341.97826623 585.79664491 -345.28515625 583.8046875 C-346.1572876 583.27262695 -347.02941895 582.74056641 -347.92797852 582.19238281 C-349.59427971 581.17694345 -351.26760235 580.17290204 -352.94897461 579.18261719 C-353.69800049 578.72274414 -354.44702637 578.26287109 -355.21875 577.7890625 C-355.87810547 577.39412598 -356.53746094 576.99918945 -357.21679688 576.59228516 C-360.43268949 573.72070087 -361.83811479 570.22085153 -362.39872742 565.99301147 C-362.40983047 564.93103546 -362.42093353 563.86905945 -362.43237305 562.77490234 C-362.46195854 560.94413651 -362.46195854 560.94413651 -362.49214172 559.0763855 C-362.49860214 557.75953766 -362.50506256 556.44268982 -362.51171875 555.0859375 C-362.52923565 553.68960973 -362.54803735 552.29329756 -362.56803894 550.89700317 C-362.6173831 547.16257263 -362.64810728 543.42824324 -362.67238617 539.693573 C-362.68752094 537.37178773 -362.70509035 535.05003335 -362.72344971 532.72827148 C-362.73253798 531.57360823 -362.73253798 531.57360823 -362.74180984 530.39561844 C-362.74789639 529.62504482 -362.75398293 528.85447121 -362.76025391 528.06054688 C-362.79698925 523.4041685 -362.83222773 518.74780871 -362.86035156 514.09136963 C-362.91991702 505.28235189 -363.12897849 496.49727871 -363.51171875 487.6953125 C-364.35332911 466.18585673 -363.06409473 451.08354841 -351.84326172 432.16943359 C-348.73264405 426.82081921 -346.09404909 421.24207027 -343.375 415.6875 C-342.2979496 413.54697955 -341.21855341 411.40763769 -340.13671875 409.26953125 C-336.63864269 402.31542073 -333.27702896 395.29903433 -329.95263672 388.26049805 C-326.09319191 380.11063966 -322.04945875 372.05652438 -318 364 C-305.54187235 339.27404549 -305.54187235 339.27404549 -293.49536133 314.34643555 C-287.54044727 301.80353812 -281.23687576 289.42852351 -274.99487305 277.02685547 C-274.54187332 276.12508575 -274.0888736 275.22331604 -273.62214661 274.29421997 C-272.76126331 272.58066926 -271.89869455 270.867964 -271.03422546 269.15621948 C-270.6489418 268.3889151 -270.26365814 267.62161072 -269.86669922 266.83105469 C-269.52903534 266.16096375 -269.19137146 265.4908728 -268.84347534 264.80047607 C-267.09821137 261.07504882 -267.0182002 258.47819189 -267.25 254.4375 C-267.22616995 247.83657524 -266.31190246 243.13282235 -262 238 C-257.95337349 234.74672527 -253.67100878 232.05430098 -249.23339844 229.37011719 C-246.11721408 227.4584396 -243.07357145 225.44255003 -240.02148438 223.43066406 C-229.73190393 216.65948265 -219.28403683 210.14274828 -208.828125 203.6328125 C-203.6020999 200.37896933 -198.39047672 197.10304883 -193.1875 193.8125 C-192.41937988 193.3268457 -191.65125977 192.84119141 -190.85986328 192.34082031 C-188.57294001 190.89435709 -186.28639554 189.44729722 -184 188 C-172.66263184 180.82340211 -161.3035017 173.68318653 -149.92114258 166.578125 C-142.83327296 162.15168594 -135.75743842 157.70682829 -128.7019043 153.22900391 C-124.90891768 150.82421669 -121.10378447 148.44400709 -117.26953125 146.10546875 C-116.51865234 145.64503174 -115.76777344 145.18459473 -114.99414062 144.71020508 C-113.57337246 143.84066825 -112.14904526 142.97691167 -110.72070312 142.11987305 C-109.11307139 141.13339065 -107.55071507 140.0737365 -106 139 C-106 138.34 -106 137.68 -106 137 C-105.26458984 136.88624023 -104.52917969 136.77248047 -103.77148438 136.65527344 C-100.92442993 135.98213266 -99.11377442 135.07440392 -96.65625 133.515625 C-95.42201294 132.7414624 -95.42201294 132.7414624 -94.1628418 131.95166016 C-92.84473511 131.10933838 -92.84473511 131.10933838 -91.5 130.25 C-89.60039568 129.05447254 -87.70065233 127.85916599 -85.80078125 126.6640625 C-84.83350098 126.05208008 -83.8662207 125.44009766 -82.86962891 124.80957031 C-78.49450828 122.0506462 -74.09009682 119.33976622 -69.6875 116.625 C-61.86604139 111.78523113 -54.05455794 106.92947154 -46.25 102.0625 C-45.26217529 101.44777832 -44.27435059 100.83305664 -43.2565918 100.19970703 C-37.43564966 96.56502726 -31.68426239 92.84508066 -26 89 C-26.6798999 88.80365967 -27.3597998 88.60731934 -28.06030273 88.4050293 C-31.18658252 87.50106718 -34.31204288 86.59430221 -37.4375 85.6875 C-38.50677734 85.37876953 -39.57605469 85.07003906 -40.67773438 84.75195312 C-45.46651673 83.36071666 -50.21283839 81.9456667 -54.91015625 80.26953125 C-58.4434244 79.10085026 -61.25351156 78.36186186 -65 79 C-67.39361875 80.50489892 -69.36743537 81.93899805 -71.5 83.75 C-72.10312012 84.24371094 -72.70624023 84.73742187 -73.32763672 85.24609375 C-75.23250951 86.81463821 -77.11745631 88.40475604 -79 90 C-79.89960449 90.75313477 -79.89960449 90.75313477 -80.81738281 91.52148438 C-84.92524354 94.96156479 -88.97596155 98.46239714 -93 102 C-94.35544922 103.18529297 -94.35544922 103.18529297 -95.73828125 104.39453125 C-100.79130236 108.92104365 -105.62496966 113.60825197 -110.37109375 118.453125 C-130.87134526 139.35762605 -130.87134526 139.35762605 -142 146 C-142.59151855 146.36609375 -143.18303711 146.7321875 -143.79248047 147.109375 C-156.5224369 154.91645776 -169.92874263 158.98984458 -185 156 C-188.24109394 154.99243175 -190.1514959 153.9720413 -193 152 C-193.703125 149.359375 -193.703125 149.359375 -194 147 C-193.41210693 146.74943848 -192.82421387 146.49887695 -192.21850586 146.24072266 C-176.04151434 139.28406419 -161.58050505 131.93723939 -148.85546875 119.6171875 C-147 118 -147 118 -145 118 C-144.6596875 117.1646875 -144.6596875 117.1646875 -144.3125 116.3125 C-142.6324279 113.35237297 -140.42633616 111.38826241 -138 109 C-132.16568362 102.90213974 -126.64800837 96.68548531 -121.5 90 C-114.5876414 81.04195857 -107.29085271 72.43347719 -98.36328125 65.40234375 C-96.65147506 63.96745322 -96.65147506 63.96745322 -97 61 C-101.767772 58.93560388 -106.70122262 57.54874671 -111.6875 56.125 C-112.60853516 55.85961426 -113.52957031 55.59422852 -114.47851562 55.32080078 C-121.33303576 53.38135265 -128.21624165 51.74725522 -135.2253418 50.46923828 C-139.7876711 49.56306971 -142.65935713 48.25206522 -146 45 C-148.02106107 40.95787785 -147.8384864 36.36265105 -147 32 C-143.21028606 27.09183181 -136.70972142 26.2484003 -130.91015625 25.44921875 C-128.74630913 25.20062493 -126.58226886 24.95363808 -124.41748047 24.71337891 C-103.40122113 22.36946476 -84.39286374 17.29681436 -64.37475586 10.65405273 C-52.32231647 6.68049112 -40.23577933 2.95168343 -27.625 1.25 C-26.29746704 1.06679199 -26.29746704 1.06679199 -24.94311523 0.87988281 C-16.58172378 -0.19164792 -8.41149011 -0.3296966 0 0 Z M-35.125 22.625 C-35.99922607 22.83084717 -36.87345215 23.03669434 -37.77416992 23.2487793 C-54.78337927 27.49232555 -71.38185853 33.45494848 -88 39 C-69.08245813 58.61432057 -35.55592109 68.3800947 -8.90625 69.203125 C9.0239821 69.46365256 32.5712575 68.28582833 48 58 C49.29857385 57.53953851 50.61203514 57.12008609 51.93359375 56.73046875 C57.90486899 54.80780282 63.43637098 52.06344637 69.0625 49.3125 C70.11888672 48.80138672 71.17527344 48.29027344 72.26367188 47.76367188 C74.84484987 46.51396126 77.4235047 45.25932878 80 44 C80 43.01 80 42.02 80 41 C51.10580909 29.49445258 51.10580909 29.49445258 21 24 C20.98582031 24.89460938 20.97164062 25.78921875 20.95703125 26.7109375 C20.58742014 36.08107855 19.2924621 43.47551293 12.6875 50.4375 C4.80509464 55.02029381 -3.12049572 56.61355646 -12.1484375 54.49609375 C-17.55006647 52.43215255 -20.93235405 48.86838042 -23.75 43.9375 C-26.80871494 36.7495199 -26.55713914 29.59105331 -25 22 C-28.31071291 20.34464354 -31.66071056 21.80466111 -35.125 22.625 Z M209.54296875 289.12890625 C206.46131573 292.60819192 204.37439782 296.23193944 202.1875 300.3125 C201.60645508 301.3653418 201.60645508 301.3653418 201.01367188 302.43945312 C197.20784745 309.41172346 193.70134941 316.53761244 190.16775513 323.650177 C186.63539317 330.75819577 183.08997593 337.85973198 179.54638672 344.9621582 C178.60165362 346.85665476 177.65763868 348.75150963 176.71435547 350.64672852 C171.42230626 361.2776999 166.06127455 371.86157114 160.50190735 382.35546875 C156.83185769 389.28976543 153.29998081 396.2846361 149.8125 403.3125 C148.67317708 405.60026042 147.53385417 407.88802083 146.39453125 410.17578125 C145.57009521 411.83988037 145.57009521 411.83988037 144.72900391 413.53759766 C143.50531489 415.98808588 142.26974004 418.42921915 141.01708984 420.86474609 C140.69238205 421.50067184 140.36767426 422.1365976 140.03312683 422.79179382 C139.12335328 424.57183338 138.20771604 426.34887245 137.29174805 428.12573242 C135.79503835 430.93086091 135.79503835 430.93086091 136 434 C135.34 434 134.68 434 134 434 C134.33 434.66 134.66 435.32 135 436 C148.97508373 428.0289209 162.9430439 420.0462689 176.875 412 C188.47147464 405.3030445 200.08188921 398.63407539 211.75 392.0625 C212.44303223 391.6720752 213.13606445 391.28165039 213.85009766 390.87939453 C219.80659474 387.53138601 223.18612706 386.35059489 230 388 C233.79905782 389.71100368 237.27755158 391.86489941 240.8125 394.0625 C242.94438743 395.34658917 245.07723987 396.62907724 247.2109375 397.91015625 C248.32049805 398.58191895 249.43005859 399.25368164 250.57324219 399.94580078 C256.3109594 403.38532434 262.12387028 406.691241 267.9375 410 C269.1107384 410.66957031 270.28391548 411.33924806 271.45703125 412.0090332 C282.44643626 418.2778481 293.48285351 424.46240439 304.53759766 430.61523438 C306.73195349 431.84926038 308.9040576 433.11478251 311.07421875 434.390625 C313.73552972 436.16065455 313.73552972 436.16065455 316 436 C314.44324854 430.74687862 312.14257272 426.09620528 309.6328125 421.25390625 C309.2017923 420.41415756 308.77077209 419.57440887 308.32669067 418.70921326 C306.93032357 415.99145944 305.52782356 413.27692599 304.125 410.5625 C303.16214134 408.69220839 302.19957713 406.82176516 301.23730469 404.95117188 C298.49823584 399.63064209 295.75106821 394.31433387 293 389 C292.64973755 388.32330261 292.2994751 387.64660522 291.93859863 386.94940186 C287.53621249 378.44809721 283.12600343 369.95067202 278.59765625 361.515625 C274.72766325 354.29827997 271.02747992 347.04661239 267.5625 339.625 C263.0232665 329.91036753 258.10144246 320.43005589 253 311 C252.55414551 310.17419434 252.10829102 309.34838867 251.64892578 308.49755859 C250.31515306 306.03583343 248.97229321 303.579348 247.625 301.125 C247.22031494 300.3817749 246.81562988 299.6385498 246.39868164 298.87280273 C242.79998226 292.37925291 239.24764647 286.73293878 232 284 C223.20635557 281.9246467 216.40037383 283.18727546 209.54296875 289.12890625 Z M-251.54296875 290.484375 C-254.84209772 294.4822471 -257.09980189 299.04374534 -259.375 303.671875 C-260.08704619 305.10784331 -260.7993009 306.54370823 -261.51171875 307.97949219 C-262.10218994 309.17221741 -262.10218994 309.17221741 -262.70458984 310.38903809 C-265.1861392 315.39072101 -267.68883493 320.38185227 -270.1875 325.375 C-271.30997787 327.61975064 -272.4323724 329.86454297 -273.5546875 332.109375 C-275.8515625 336.703125 -278.1484375 341.296875 -280.4453125 345.890625 C-281.00521378 347.01047287 -281.56511505 348.13032074 -282.14198303 349.28410339 C-283.24668448 351.49341548 -284.35153031 353.70265538 -285.45652771 355.91181946 C-287.78696999 360.57129686 -290.11640205 365.23124486 -292.43774414 369.89526367 C-295.6847531 376.41591402 -298.96272726 382.90944228 -302.4375 389.3125 C-306.0719304 396.09365085 -309.42006341 402.98266724 -312.6796875 409.95068359 C-316.31074412 417.70663331 -320.137082 425.35753633 -324 433 C-324.66751959 434.33290653 -325.33467101 435.66599867 -326 437 C-321.10480246 435.58633312 -317.00416747 433.38994107 -312.6875 430.75 C-305.48736475 426.43168241 -298.20825552 422.27548172 -290.875 418.1875 C-288.73567057 416.99350126 -286.5963477 415.79949075 -284.45703125 414.60546875 C-282.85722412 413.71287354 -282.85722412 413.71287354 -281.22509766 412.80224609 C-275.99711989 409.88075239 -270.77836157 406.94305908 -265.5625 404 C-264.64645996 403.4846167 -263.73041992 402.9692334 -262.78662109 402.43823242 C-257.55257045 399.4827199 -252.37624605 396.4495335 -247.2434082 393.32128906 C-243.9167538 391.36200583 -240.47780956 389.67056355 -237 388 C-235.66573165 387.33520665 -234.33215756 386.66901305 -233 386 C-232.67 386.33 -232.34 386.66 -232 387 C-230.30017202 387.71938869 -228.60017605 388.43838494 -226.89904785 389.1546936 C-224.11958524 390.39189124 -221.53979751 391.9023979 -218.921875 393.44921875 C-218.36146515 393.77883102 -217.8010553 394.1084433 -217.22366333 394.44804382 C-215.39674858 395.5239173 -213.5733808 396.60564999 -211.75 397.6875 C-210.46261111 398.44713125 -209.1750099 399.2064028 -207.88720703 399.96533203 C-203.92135336 402.30440981 -199.96025762 404.65146357 -196 407 C-194.77116913 407.72837019 -193.54232824 408.4567235 -192.31347656 409.18505859 C-189.96817771 410.57532347 -187.62305349 411.96588231 -185.27807617 413.35668945 C-171.62541864 421.45825227 -171.62541864 421.45825227 -157.9375 429.5 C-157.15165527 429.96325684 -156.36581055 430.42651367 -155.55615234 430.90380859 C-152.01300977 433.18742634 -152.01300977 433.18742634 -148 434 C-148.56482365 430.61105808 -149.41282258 428.0281853 -151 425 C-151.66999023 423.69760376 -151.66999023 423.69760376 -152.35351562 422.36889648 C-154.06836864 419.05809772 -155.78344846 415.74741841 -157.5 412.4375 C-157.81501465 411.82986816 -158.1300293 411.22223633 -158.45458984 410.59619141 C-162.66342313 402.47930815 -166.89394839 394.37441832 -171.16772461 386.29150391 C-173.60631484 381.67159002 -176.01673261 377.03802415 -178.41015625 372.39453125 C-185.88404961 357.82467576 -185.88404961 357.82467576 -193.8125 343.5 C-196.91428887 338.11816746 -199.64293884 332.63733136 -202.25 327 C-205.8289662 319.314338 -209.6091222 311.75022686 -213.5625 304.25 C-214.33932129 302.73212891 -214.33932129 302.73212891 -215.13183594 301.18359375 C-218.85332387 294.22065953 -223.19664187 287.60111938 -231 285 C-238.98547546 284.213063 -245.58335643 284.75107707 -251.54296875 290.484375 Z " fill="#00CBDE" transform="translate(523,95)"/>
<path d="M0 0 C0.66644531 0.43054688 1.33289063 0.86109375 2.01953125 1.3046875 C9.25812216 6.63506599 13.22594131 16.11757577 14.7578125 24.79296875 C16.01191639 36.22149618 14.4356139 47.27096489 8 57 C6.30778964 58.76659323 4.59604356 60.26996698 2.6484375 61.74609375 C2.10445312 62.15988281 1.56046875 62.57367187 1 63 C0.17033722 63.58581093 0.17033722 63.58581093 -0.67608643 64.18345642 C-2.31330883 66.00942387 -2.31330883 66.00942387 -1.73797607 68.82740784 C-1.43869202 69.97950241 -1.13940796 71.13159698 -0.83105469 72.31860352 C-0.67038513 72.95693115 -0.50971558 73.59525879 -0.34417725 74.25292969 C0.19651059 76.38293958 0.76219562 78.50547556 1.328125 80.62890625 C1.71592154 82.13461786 2.10218461 83.64072516 2.48699951 85.14720154 C3.51353737 89.1480099 4.56137606 93.14294737 5.61352539 97.13708496 C6.64332873 101.06135856 7.6527618 104.99084802 8.6640625 108.91992188 C11.92033952 121.54305754 15.24057223 134.1492033 18.58398438 146.74951172 C18.79251919 147.53573253 19.001054 148.32195333 19.21590805 149.13199902 C20.21050452 152.88060312 21.20711547 156.62864855 22.20782471 160.37562561 C22.56402483 161.71387222 22.92020668 163.0521237 23.27636719 164.39038086 C23.58612488 165.55033066 23.89588257 166.71028046 24.21502686 167.90538025 C24.89740606 170.59554129 25.47425614 173.2760244 26 176 C26.52989272 178.13479868 27.07409477 180.26607267 27.62890625 182.39453125 C27.94150391 183.59658203 28.25410156 184.79863281 28.57617188 186.03710938 C28.90166016 187.28298828 29.22714844 188.52886719 29.5625 189.8125 C29.89185547 191.07771484 30.22121094 192.34292969 30.56054688 193.64648438 C31.37244692 196.76465121 32.18564274 199.88247417 33 203 C46.30001228 206.43217818 59.68330668 209.48392293 73.0769043 212.52636719 C76.76718383 213.36470531 80.45688164 214.20556381 84.14648438 215.046875 C85.354487 215.32162659 86.56248962 215.59637817 87.80709839 215.87945557 C90.23275066 216.43203725 92.65782623 216.98715684 95.08230591 217.54486084 C101.26253059 218.95917018 107.44689083 220.30460341 113.66552734 221.54003906 C114.89921555 221.7924234 116.13290375 222.04480774 117.40397644 222.30484009 C119.74715148 222.78170664 122.09421464 223.23998385 124.44526672 223.67636108 C133.13345894 225.47084209 133.13345894 225.47084209 136.18676758 228.87255859 C140.06103944 235.55485597 139.21799816 242.83856771 139.25 250.375 C139.270625 251.5815625 139.29125 252.788125 139.3125 254.03125 C139.36762504 266.57219671 139.36762504 266.57219671 136 271 C127.19233875 274.64594531 115.96556806 273.14570429 106.6484375 272.9765625 C104.77944192 272.95035419 102.91043288 272.92509058 101.04141235 272.90072632 C96.15214833 272.83447861 91.26317189 272.75550097 86.37414551 272.67376709 C81.37323945 272.59245072 76.37216611 272.52331816 71.37109375 272.453125 C61.58052878 272.31393002 51.7902245 272.16127057 42 272 C41.67 272.66 41.34 273.32 41 274 C40.67 273.67 40.34 273.34 40 273 C37.24654234 272.90655792 34.51832868 272.87899415 31.76461792 272.89320374 C30.8907387 272.89376044 30.01685948 272.89431715 29.11649907 272.89489073 C26.16471547 272.89794615 23.21299787 272.90814191 20.26123047 272.91821289 C18.15424165 272.92176628 16.04725199 272.92485302 13.94026184 272.92750549 C9.3905324 272.93407396 4.84082232 272.94364484 0.29110336 272.95540047 C-6.90235217 272.97363932 -14.0958029 272.98327837 -21.28927612 272.99131775 C-41.74918703 273.0155088 -62.20906913 273.05131214 -82.66894531 273.09594727 C-93.95928159 273.12050197 -105.24960643 273.13786105 -116.53996551 273.14750665 C-123.69084083 273.15405157 -130.84162229 273.169616 -137.99246526 273.19182408 C-142.44505615 273.20355913 -146.89762423 273.20692182 -151.35022926 273.20792198 C-153.41459498 273.21006868 -155.47896044 273.2156577 -157.54330635 273.2249527 C-160.36318938 273.23715718 -163.18281447 273.23698307 -166.00271606 273.23377991 C-166.81819794 273.24028771 -167.63367981 273.24679551 -168.47387326 273.25350052 C-173.35247818 273.23196109 -177.40228661 272.68590072 -182 271 C-185.36306798 267.1840297 -185.38529416 263.67988507 -185.3984375 258.72265625 C-185.40274277 257.68920326 -185.40274277 257.68920326 -185.40713501 256.63487244 C-185.40916863 255.18341242 -185.40368795 253.73192455 -185.39111328 252.28051758 C-185.37507227 250.07244812 -185.39097111 247.86621553 -185.41015625 245.65820312 C-185.40817321 244.2421835 -185.40432828 242.82616501 -185.3984375 241.41015625 C-185.39505371 240.13277588 -185.39166992 238.85539551 -185.38818359 237.53930664 C-184.95592118 233.5981065 -184.22705026 231.2794476 -182 228 C-177.23395808 224.80715333 -171.80811882 223.84341491 -166.27734375 222.65234375 C-165.31913727 222.43927582 -164.36093079 222.22620789 -163.37368774 222.00668335 C-160.22989543 221.30945953 -157.08377979 220.62340319 -153.9375 219.9375 C-151.75561697 219.45605144 -149.57389672 218.97386464 -147.39233398 218.4909668 C-142.87403305 217.4918231 -138.35482949 216.4969098 -133.83496094 215.50488281 C-127.15970054 214.03794674 -120.4894768 212.54905988 -113.8203125 211.0546875 C-110.72782823 210.36272861 -107.6352982 209.67097461 -104.54275513 208.97927856 C-102.5578732 208.53519688 -100.57307074 208.0907599 -98.58834839 207.64596558 C-95.83150215 207.02878375 -93.07405016 206.41438764 -90.31640625 205.80078125 C-89.49790192 205.61695892 -88.67939758 205.4331366 -87.83609009 205.2437439 C-82.22865992 204 -82.22865992 204 -80 204 C-79.74605469 202.90042969 -79.49210937 201.80085937 -79.23046875 200.66796875 C-78.88329274 199.17436746 -78.53560129 197.68088592 -78.1875 196.1875 C-78.00735352 195.41374023 -77.82720703 194.63998047 -77.64160156 193.84277344 C-76.41231668 188.61450518 -75.05629708 183.44337535 -73.515625 178.296875 C-72.95525111 175.80066402 -72.90956777 173.55018899 -73 171 C-72.34 171 -71.68 171 -71 171 C-70.90112488 170.38413025 -70.80224976 169.7682605 -70.70037842 169.13372803 C-69.28913723 160.84545308 -67.22350424 152.76152681 -65.078125 144.640625 C-64.69143101 143.16454379 -64.30510684 141.68836565 -63.91912842 140.21209717 C-62.90579566 136.34029198 -61.88759812 132.46978305 -60.86828613 128.59954834 C-59.85203388 124.73768945 -58.84023981 120.87466362 -57.828125 117.01171875 C-51.65933122 93.47819121 -51.65933122 93.47819121 -49.08398438 83.77539062 C-48.79980652 82.69972839 -48.51562866 81.62406616 -48.22283936 80.51580811 C-47.70572398 78.55866649 -47.18578499 76.60226775 -46.66241455 74.64678955 C-46.4396283 73.80138611 -46.21684204 72.95598267 -45.98730469 72.08496094 C-45.7948114 71.36145447 -45.60231812 70.637948 -45.4039917 69.89251709 C-44.89561782 67.83354308 -44.89561782 67.83354308 -45 65 C-46.19625 64.484375 -47.3925 63.96875 -48.625 63.4375 C-55.91739953 59.76553204 -60.00827413 53.44095922 -63 46 C-65.82944822 36.20196573 -65.47707405 22.59308827 -61.3203125 13.3203125 C-55.69563635 3.43552661 -48.27903499 -3.27834557 -37.2265625 -6.46875 C-24.09438689 -9.60204102 -11.19826297 -7.66294359 0 0 Z " fill="#00CADE" transform="translate(538,597)"/>
<path d="M0 0 C4.24318472 2.50501266 7.63893195 5.68674171 11.1875 9.0625 C26.1317479 23.27182022 46.43227645 31.9472684 65.75 38.625 C70.80614361 40.3782489 75.56964912 42.42130995 80.375 44.75 C93.29241313 50.95522776 105.74751757 55.13757548 119.9140625 51.22265625 C123.49668512 49.94314817 126.59830456 48.25226349 129.77734375 46.17578125 C132.30760835 44.94707311 134.03222097 44.8714551 136.8125 45.1875 C138.8125 47.1875 138.8125 47.1875 139 49.03515625 C138.36674656 56.51546256 135.37925546 61.87344988 129.8828125 66.98046875 C121.59843343 73.5080437 113.45866835 75.80376144 102.9375 74.5625 C102.2878125 74.50449219 101.638125 74.44648437 100.96875 74.38671875 C86.26670908 72.70727213 71.88924998 66.09026978 58.16967773 60.84423828 C44.61136974 55.67215625 30.80518534 50.50582084 16.375 48.4375 C15.61968994 48.32172607 14.86437988 48.20595215 14.08618164 48.08666992 C11.99668072 47.77260314 9.90558213 47.47655497 7.8125 47.1875 C6.90242187 47.05472656 5.99234375 46.92195313 5.0546875 46.78515625 C-6.5724961 45.34653862 -18.24145318 45.83537131 -29.8125 47.4375 C-30.62178955 47.54674805 -31.4310791 47.65599609 -32.26489258 47.76855469 C-45.43124342 49.75858927 -57.96551066 53.97691245 -70.4375 58.5 C-71.79977509 58.98816734 -73.16224508 59.47579111 -74.52490234 59.96289062 C-81.19519443 62.35295683 -87.84332123 64.79704033 -94.47021484 67.30517578 C-108.87938723 72.7330212 -125.57398581 78.10588644 -140.8125 72.5625 C-148.25038688 68.95089449 -153.66773601 63.70699579 -157.1875 56.1875 C-158.1875 52.4375 -158.1875 52.4375 -158.1875 49.1875 C-156.75 46.75 -156.75 46.75 -155.1875 45.1875 C-150.65483098 45.72154053 -147.55825166 46.91179389 -143.625 49.1875 C-133.80098884 54.20246994 -124.82952318 54.14264008 -114.43359375 50.81640625 C-107.72608962 48.34469842 -101.22543828 45.3304362 -94.71313477 42.3918457 C-88.34185372 39.52584024 -81.97079891 36.92262516 -75.375 34.625 C-51.28058588 26.52325321 -51.28058588 26.52325321 -33.1875 10.1875 C-32.5275 10.1875 -31.8675 10.1875 -31.1875 10.1875 C-30.8575 9.1975 -30.5275 8.2075 -30.1875 7.1875 C-21.61338614 -1.20752009 -11.0941251 -5.36552232 0 0 Z " fill="#00CADD" transform="translate(527.1875,36.8125)"/>
<path d="M0 0 C0.495 0.99 0.495 0.99 1 2 C0.31130675 3.54955982 -0.45439285 5.06502102 -1.25 6.5625 C-7.14266207 19.13570096 -7.17802473 32.39620381 -7 46 C-14.64080129 46.04632731 -22.28158803 46.08187121 -29.92249775 46.10362434 C-33.47043631 46.11406444 -37.01827883 46.12822763 -40.56616211 46.15087891 C-44.64437791 46.17675331 -48.72249271 46.1864709 -52.80078125 46.1953125 C-54.71338493 46.21079636 -54.71338493 46.21079636 -56.66462708 46.22659302 C-58.43612373 46.22681961 -58.43612373 46.22681961 -60.2434082 46.22705078 C-61.28487503 46.231492 -62.32634186 46.23593323 -63.39936829 46.24050903 C-66 46 -66 46 -69 44 C-49.2 44 -29.4 44 -9 44 C-9 37.73 -9 31.46 -9 25 C-7.19694532 15.78438718 -5.28800282 7.80197138 0 0 Z " fill="#02A4AE" transform="translate(549,513)"/>
<path d="M0 0 C0.33 0.66 0.66 1.32 1 2 C0.31130675 3.54955982 -0.45439285 5.06502102 -1.25 6.5625 C-7.07007895 18.98083002 -7.49012596 32.51245976 -7 46 C-8.32 46 -9.64 46 -11 46 C-11 45.34 -11 44.68 -11 44 C-10.34 44 -9.68 44 -9 44 C-9.04640625 42.8140625 -9.0928125 41.628125 -9.140625 40.40625 C-9.53264028 25.94824586 -8.35302027 12.32412827 0 0 Z " fill="#02B8C6" transform="translate(549,513)"/>
<path d="M0 0 C0.66 0.33 1.32 0.66 2 1 C1.360625 1.2475 0.72125 1.495 0.0625 1.75 C-0.618125 2.1625 -1.29875 2.575 -2 3 C-2.13148438 3.62261719 -2.26296875 4.24523437 -2.3984375 4.88671875 C-3.54333301 8.90872181 -7.63612168 10.81256 -11 13 C-12.97104913 14.05591918 -14.96088152 15.08239669 -17 16 C-15.44705319 11.85237809 -12.41556488 9.5622363 -9.0625 6.875 C-8.52431641 6.43285156 -7.98613281 5.99070312 -7.43164062 5.53515625 C-5.01646378 3.56370487 -2.59596915 1.7306461 0 0 Z " fill="#01C2D3" transform="translate(435,324)"/>
<path d="M0 0 C-1.65 0.33 -3.3 0.66 -5 1 C-5.33 1.99 -5.66 2.98 -6 4 C-7.50626953 4.13535156 -7.50626953 4.13535156 -9.04296875 4.2734375 C-13.28713177 4.87837234 -16.59025229 6.57796366 -20.3125 8.625 C-22.52314893 9.83039026 -24.71228082 10.93773869 -27 12 C-27.66 11.67 -28.32 11.34 -29 11 C-25.96235911 9.3673917 -22.91921677 7.74530892 -19.875 6.125 C-19.0190625 5.66480469 -18.163125 5.20460938 -17.28125 4.73046875 C-4.85248162 -1.86633908 -4.85248162 -1.86633908 0 0 Z " fill="#02B7C5" transform="translate(469,310)"/>
<path d="M0 0 C3.27310883 0.20892184 5.32433057 0.43694214 7.875 2.5625 C8.431875 3.2740625 8.431875 3.2740625 9 4 C5.37673261 5.2077558 4.35853631 4.54311128 1 3 C0.855625 4.093125 0.71125 5.18625 0.5625 6.3125 C0 10 0 10 -1 13 C-3.02892674 8.94214651 -3.16885197 6.3831949 -2 2 C-1.34 1.34 -0.68 0.68 0 0 Z " fill="#09BACB" transform="translate(372,82)"/>
<path d="M0 0 C0.56460937 0.25136719 1.12921875 0.50273437 1.7109375 0.76171875 C1.0509375 0.76171875 0.3909375 0.76171875 -0.2890625 0.76171875 C-0.4953125 1.31859375 -0.7015625 1.87546875 -0.9140625 2.44921875 C-3.73277788 7.18978553 -8.56206419 10.12016087 -13.2890625 12.76171875 C-11.75658201 9.1776918 -9.6216024 6.73321741 -6.9140625 3.94921875 C-6.14320313 3.13839844 -5.37234375 2.32757813 -4.578125 1.4921875 C-2.2890625 -0.23828125 -2.2890625 -0.23828125 0 0 Z " fill="#01C2D2" transform="translate(510.2890625,468.23828125)"/>
<path d="M0 0 C-0.83144531 0.39832031 -0.83144531 0.39832031 -1.6796875 0.8046875 C-2.76636719 1.33449219 -2.76636719 1.33449219 -3.875 1.875 C-4.59429687 2.22304688 -5.31359375 2.57109375 -6.0546875 2.9296875 C-8.15135019 3.96557543 -8.15135019 3.96557543 -10 6 C-10.36831081 7.93257855 -10.36831081 7.93257855 -10.4140625 10.1328125 C-10.45273437 10.93847656 -10.49140625 11.74414062 -10.53125 12.57421875 C-10.5621875 13.41597656 -10.593125 14.25773438 -10.625 15.125 C-10.66367187 15.97449219 -10.70234375 16.82398438 -10.7421875 17.69921875 C-10.83656494 19.79911684 -10.91937586 21.89952891 -11 24 C-11.33 24 -11.66 24 -12 24 C-12.13530844 20.93601549 -12.2342407 17.87802874 -12.3125 14.8125 C-12.35439453 13.94818359 -12.39628906 13.08386719 -12.43945312 12.19335938 C-12.52720716 7.61259855 -12.51923449 5.66540197 -9.61328125 1.94140625 C-5.90392054 -0.81427727 -4.40440887 -1.46813629 0 0 Z " fill="#01D5E9" transform="translate(367,824)"/>
<path d="M0 0 C0.33 0.66 0.66 1.32 1 2 C0.29296875 3.92578125 0.29296875 3.92578125 -0.8125 6.3125 C-3.38103618 12.38277755 -4.2245288 18.49012333 -5 25 C-5.99 25 -6.98 25 -8 25 C-6.50967969 15.91268103 -4.78037401 8.03027255 0 0 Z " fill="#02B9C6" transform="translate(466,387)"/>
<path d="M0 0 C2 1 2 1 2.81640625 2.8984375 C4.73389742 9.26330348 5.63432348 15.36738457 6 22 C3.80797954 18.71196932 2.95741384 15.91745739 1.875 12.125 C1.52179687 10.91070313 1.16859375 9.69640625 0.8046875 8.4453125 C0.10646965 5.4558555 -0.1736106 3.04397245 0 0 Z " fill="#03B7C4" transform="translate(559,759)"/>
<path d="M0 0 C0 3 0 3 -2.625 5.69921875 C-3.74254026 6.70367458 -4.86791033 7.69947129 -6 8.6875 C-6.57234375 9.19861328 -7.1446875 9.70972656 -7.734375 10.23632812 C-9.14967213 11.4983014 -10.57400269 12.75013033 -12 14 C-12.66 13.67 -13.32 13.34 -14 13 C-12.88121617 11.82737096 -11.75476949 10.66204862 -10.625 9.5 C-9.99851562 8.8503125 -9.37203125 8.200625 -8.7265625 7.53125 C-7 6 -7 6 -5 6 C-4.731875 5.38125 -4.46375 4.7625 -4.1875 4.125 C-3 2 -3 2 0 0 Z " fill="#02BCCC" transform="translate(383,207)"/>
<path d="M0 0 C5.67853635 1.41963409 9.53174216 4.39363961 14 8 C10.01265607 8 7.54416155 6.80316991 4 5 C1.5625 2.3125 1.5625 2.3125 0 0 Z " fill="#00C0CF" transform="translate(586,317)"/>
<path d="M0 0 C0.66 0.33 1.32 0.66 2 1 C-1.96 3.64 -5.92 6.28 -10 9 C-10.66 8.67 -11.32 8.34 -12 8 C-8.2646504 3.81188075 -5.22578394 1.77479455 0 0 Z " fill="#02BECD" transform="translate(468,260)"/>
<path d="M0 0 C0.33 0 0.66 0 1 0 C1.33 6.27 1.66 12.54 2 19 C0.68 19 -0.64 19 -2 19 C-2 18.34 -2 17.68 -2 17 C-1.34 17 -0.68 17 0 17 C0 11.39 0 5.78 0 0 Z " fill="#04B0BD" transform="translate(540,540)"/>
<path d="M0 0 C-1.65 0.33 -3.3 0.66 -5 1 C-5.33 1.99 -5.66 2.98 -6 4 C-7.65 4 -9.3 4 -11 4 C-11.33 3.34 -11.66 2.68 -12 2 C-10.75579353 1.4654744 -9.50429064 0.94791389 -8.25 0.4375 C-7.55390625 0.14746094 -6.8578125 -0.14257812 -6.140625 -0.44140625 C-3.69987216 -1.07831803 -2.3596345 -0.80248831 0 0 Z " fill="#01C0CF" transform="translate(469,310)"/>
<path d="M0 0 C0.33 0.66 0.66 1.32 1 2 C-1.8125 4.0625 -1.8125 4.0625 -5 6 C-5.99 5.67 -6.98 5.34 -8 5 C-5.59563974 1.39345961 -4.05320393 1.14547068 0 0 Z " fill="#01BFCE" transform="translate(203,529)"/>
<path d="M0 0 C1 3 1 3 0.25 5.0625 C-1 7 -1 7 -4 9 C-2.94124926 5.59687262 -1.99097846 2.98646769 0 0 Z " fill="#00D5E9" transform="translate(204,465)"/>
<path d="M0 0 C0.66 0 1.32 0 2 0 C1.67 0.66 1.34 1.32 1 2 C0.67 1.34 0.34 0.68 0 0 Z " fill="#02D2E4" transform="translate(491,662)"/>
<path d="M0 0 C2 1 2 1 2 1 Z " fill="#03CBDD" transform="translate(496,871)"/>
<path d="M0 0 C2 1 2 1 2 1 Z " fill="#08CCDB" transform="translate(603,870)"/>
<path d="M0 0 C2 1 2 1 2 1 Z " fill="#04D3E2" transform="translate(417,808)"/>
<path d="" fill="#00D2E5" transform="translate(0,0)"/>
<path d="M0 0 C2 1 2 1 2 1 Z " fill="#02D3E5" transform="translate(257,496)"/>
<path d="M0 0 C2 1 2 1 2 1 Z " fill="#00D7E8" transform="translate(456,413)"/>
<path d="M0 0 C2 1 2 1 2 1 Z " fill="#00D4E4" transform="translate(448,413)"/>
<path d="M0 0 C2 1 2 1 2 1 Z " fill="#00D3E3" transform="translate(416,413)"/>
<path d="" fill="#0CBDCD" transform="translate(0,0)"/>
<path d="M0 0 C2 1 2 1 2 1 Z " fill="#04CCDE" transform="translate(353,272)"/>
<path d="M0 0 C2 1 2 1 2 1 Z " fill="#02D8E7" transform="translate(433,112)"/>
<path d="M0 0 C2 1 2 1 2 1 Z " fill="#02D3E5" transform="translate(412,111)"/>
<path d="M0 0 C2 1 2 1 2 1 Z " fill="#06CBD9" transform="translate(642,88)"/>
<path d="" fill="#05CAD8" transform="translate(0,0)"/>
<path d="" fill="#04CDDB" transform="translate(0,0)"/>
<path d="" fill="#04CCDB" transform="translate(0,0)"/>
<path d="" fill="#05CADB" transform="translate(0,0)"/>
<path d="" fill="#03C9DB" transform="translate(0,0)"/>
<path d="" fill="#05CADA" transform="translate(0,0)"/>
<path d="" fill="#0DBECC" transform="translate(0,0)"/>
<path d="" fill="#07CCD8" transform="translate(0,0)"/>
<path d="" fill="#08CDDD" transform="translate(0,0)"/>
<path d="" fill="#0EB5BE" transform="translate(0,0)"/>
<path d="" fill="#05CEDE" transform="translate(0,0)"/>
<path d="" fill="#08CCD9" transform="translate(0,0)"/>
<path d="" fill="#06CADC" transform="translate(0,0)"/>
<path d="" fill="#04CCDD" transform="translate(0,0)"/>
<path d="" fill="#03CCDA" transform="translate(0,0)"/>
<path d="" fill="#05CBDA" transform="translate(0,0)"/>
<path d="" fill="#05C9DB" transform="translate(0,0)"/>
<path d="" fill="#02D2DD" transform="translate(0,0)"/>
<path d="" fill="#02CAD8" transform="translate(0,0)"/>
<path d="" fill="#02CBDA" transform="translate(0,0)"/>
<path d="" fill="#04D1E0" transform="translate(0,0)"/>
<path d="" fill="#05D0E0" transform="translate(0,0)"/>
<path d="" fill="#05C9D8" transform="translate(0,0)"/>
<path d="" fill="#05D2E1" transform="translate(0,0)"/>
<path d="" fill="#06CAD7" transform="translate(0,0)"/>
<path d="" fill="#05C6D7" transform="translate(0,0)"/>
<path d="" fill="#06D1E2" transform="translate(0,0)"/>
<path d="" fill="#02D0E0" transform="translate(0,0)"/>
<path d="" fill="#04C5D4" transform="translate(0,0)"/>
<path d="" fill="#0DBCCA" transform="translate(0,0)"/>
<path d="" fill="#05C9D8" transform="translate(0,0)"/>
<path d="" fill="#03D1E1" transform="translate(0,0)"/>
<path d="" fill="#00D3E2" transform="translate(0,0)"/>
<path d="" fill="#04D0E2" transform="translate(0,0)"/>
<path d="" fill="#00D2E3" transform="translate(0,0)"/>
<path d="" fill="#01D5E6" transform="translate(0,0)"/>
<path d="" fill="#01D3E3" transform="translate(0,0)"/>
<path d="" fill="#03CEE2" transform="translate(0,0)"/>
<path d="" fill="#02D6E4" transform="translate(0,0)"/>
<path d="" fill="#00D2E6" transform="translate(0,0)"/>
<path d="" fill="#00D8EA" transform="translate(0,0)"/>
<path d="" fill="#00D1E3" transform="translate(0,0)"/>
<path d="" fill="#00D2E3" transform="translate(0,0)"/>
<path d="" fill="#04D5E5" transform="translate(0,0)"/>
<path d="" fill="#01D1E4" transform="translate(0,0)"/>
<path d="" fill="#04C9D9" transform="translate(0,0)"/>
<path d="" fill="#00D1E4" transform="translate(0,0)"/>
<path d="" fill="#02CCD8" transform="translate(0,0)"/>
<path d="" fill="#05C8D9" transform="translate(0,0)"/>
<path d="" fill="#00D3E2" transform="translate(0,0)"/>
<path d="" fill="#04CEE1" transform="translate(0,0)"/>
<path d="" fill="#00CEDF" transform="translate(0,0)"/>
<path d="" fill="#03CBD9" transform="translate(0,0)"/>
<path d="" fill="#00D3E6" transform="translate(0,0)"/>
<path d="" fill="#00D2E3" transform="translate(0,0)"/>
<path d="" fill="#01D2E1" transform="translate(0,0)"/>
<path d="" fill="#01D5E5" transform="translate(0,0)"/>
<path d="" fill="#04C6DA" transform="translate(0,0)"/>
<path d="" fill="#02CCDA" transform="translate(0,0)"/>
<path d="" fill="#05CAD8" transform="translate(0,0)"/>
<path d="" fill="#04D3E3" transform="translate(0,0)"/>
<path d="" fill="#03CAD8" transform="translate(0,0)"/>
<path d="" fill="#02D3E3" transform="translate(0,0)"/>
<path d="" fill="#00D5E4" transform="translate(0,0)"/>
<path d="" fill="#00D4E1" transform="translate(0,0)"/>
<path d="" fill="#02D4E3" transform="translate(0,0)"/>
<path d="" fill="#00D4E2" transform="translate(0,0)"/>
<path d="" fill="#00D4E3" transform="translate(0,0)"/>
<path d="" fill="#02C8D7" transform="translate(0,0)"/>
<path d="" fill="#00D1E5" transform="translate(0,0)"/>
<path d="" fill="#00D0E1" transform="translate(0,0)"/>
<path d="" fill="#01D6E5" transform="translate(0,0)"/>
<path d="" fill="#02D3E7" transform="translate(0,0)"/>
<path d="" fill="#00D4E6" transform="translate(0,0)"/>
<path d="" fill="#00D3E7" transform="translate(0,0)"/>
<path d="" fill="#02D2E4" transform="translate(0,0)"/>
<path d="" fill="#02D5E6" transform="translate(0,0)"/>
<path d="" fill="#00D8E8" transform="translate(0,0)"/>
<path d="" fill="#01D2E3" transform="translate(0,0)"/>
<path d="" fill="#0BC0CC" transform="translate(0,0)"/>
<path d="" fill="#05C5D5" transform="translate(0,0)"/>
<path d="" fill="#00D2E4" transform="translate(0,0)"/>
<path d="" fill="#00D3E1" transform="translate(0,0)"/>
<path d="" fill="#02D7E5" transform="translate(0,0)"/>
<path d="" fill="#06C9D9" transform="translate(0,0)"/>
<path d="" fill="#00D1E2" transform="translate(0,0)"/>
<path d="" fill="#02D3E6" transform="translate(0,0)"/>
<path d="" fill="#05C7D7" transform="translate(0,0)"/>
<path d="" fill="#00D2E3" transform="translate(0,0)"/>
<path d="" fill="#02D2E4" transform="translate(0,0)"/>
<path d="" fill="#02CADB" transform="translate(0,0)"/>
<path d="" fill="#03CDDF" transform="translate(0,0)"/>
<path d="" fill="#04CEE1" transform="translate(0,0)"/>
<path d="" fill="#04CCDD" transform="translate(0,0)"/>
<path d="" fill="#05CADB" transform="translate(0,0)"/>
<path d="" fill="#05CFE1" transform="translate(0,0)"/>
<path d="" fill="#00D3E1" transform="translate(0,0)"/>
<path d="" fill="#04CCDE" transform="translate(0,0)"/>
<path d="" fill="#0ABECB" transform="translate(0,0)"/>
<path d="" fill="#02D0DF" transform="translate(0,0)"/>
<path d="" fill="#07CADA" transform="translate(0,0)"/>
<path d="" fill="#00D5E3" transform="translate(0,0)"/>
<path d="" fill="#02D2E5" transform="translate(0,0)"/>
<path d="" fill="#00D3E6" transform="translate(0,0)"/>
<path d="" fill="#01D7E4" transform="translate(0,0)"/>
<path d="" fill="#06CCDD" transform="translate(0,0)"/>
<path d="" fill="#02D0E0" transform="translate(0,0)"/>
<path d="" fill="#03D5E4" transform="translate(0,0)"/>
<path d="" fill="#0CBBC6" transform="translate(0,0)"/>
<path d="" fill="#06CBDD" transform="translate(0,0)"/>
<path d="" fill="#00D5E9" transform="translate(0,0)"/>
<path d="" fill="#01D6E9" transform="translate(0,0)"/>
<path d="" fill="#03CCDC" transform="translate(0,0)"/>
<path d="" fill="#03D5E7" transform="translate(0,0)"/>
<path d="" fill="#01D2E3" transform="translate(0,0)"/>
<path d="" fill="#02D2E4" transform="translate(0,0)"/>
<path d="" fill="#03D7E9" transform="translate(0,0)"/>
<path d="" fill="#00D4E6" transform="translate(0,0)"/>
<path d="" fill="#10B2BE" transform="translate(0,0)"/>
<path d="" fill="#08C8D8" transform="translate(0,0)"/>
<path d="" fill="#04CDE0" transform="translate(0,0)"/>
<path d="" fill="#00D8EA" transform="translate(0,0)"/>
<path d="" fill="#01D2E4" transform="translate(0,0)"/>
<path d="" fill="#07CADE" transform="translate(0,0)"/>
<path d="" fill="#05CFDD" transform="translate(0,0)"/>
<path d="" fill="#05D2E1" transform="translate(0,0)"/>
</svg>
